<svg id="Layer_1" data-name="Layer 1" xmlns="http://www.w3.org/2000/svg" viewBox="0 0 213.2 145"><path d="M44.2,145q-20.81,0-32.5-13.5T0,101H22.4q.2,9.8,6.4,15.7a21.73,21.73,0,0,0,15.6,5.9q10.4,0,16.8-6.3t6.4-16.1a20.79,20.79,0,0,0-6.4-15.6Q54.8,78.41,43,78.4H25.6V51L63.4,25.6V23.8H3V2.6H87.2v31L50.8,57.8v1.8A38.67,38.67,0,0,1,73,66.1,40,40,0,0,1,87,81.6a41.12,41.12,0,0,1,4.4,18.2q0,19.2-12.9,32.2T44.2,145Z" transform="translate(0 0)" style="fill:#273e98"/><path d="M200.1,133.2Q187,145,166.2,145t-33.8-11.8q-13-11.8-13-30.8,0-23.2,20.8-33.8V66.8a31.32,31.32,0,0,1-10.9-11.5A33.64,33.64,0,0,1,124.8,38q0-16.8,12.1-27.4T166.2,0Q184,0,195.9,10.5T207.8,38a33.64,33.64,0,0,1-4.5,17.3,30.75,30.75,0,0,1-11.1,11.5v1.8q21,10.8,21,33.8Q213.2,121.4,200.1,133.2Zm-50.9-16.5q6.2,6.3,17,6.3t17-6.3a20.55,20.55,0,0,0,6.2-14.9q0-9.8-6.5-15.7t-16.7-5.9q-10,0-16.6,5.9T143,101.8A20.51,20.51,0,0,0,149.2,116.7Zm3.7-65.1q5.1,5.2,13.3,5.2t13.3-5.2A17.34,17.34,0,0,0,184.6,39a17.19,17.19,0,0,0-5-12.5q-5-5.1-13.4-5.1-8.61,0-13.5,5A17.24,17.24,0,0,0,147.8,39,17.34,17.34,0,0,0,152.9,51.6Z" transform="translate(0 0)" style="fill:#273e98"/></svg>