<?xml version="1.0" encoding="utf-8"?>
<!-- Generator: Adobe Illustrator 25.2.1, SVG Export Plug-In . SVG Version: 6.00 Build 0)  -->
<svg version="1.1" id="Layer_1" xmlns="http://www.w3.org/2000/svg" xmlns:xlink="http://www.w3.org/1999/xlink" x="0px" y="0px"
	 viewBox="0 0 212.4 145" style="enable-background:new 0 0 212.4 145;" xml:space="preserve">
<style type="text/css">
	.st0{fill:#273E98;}
</style>
<g>
	<path class="st0" d="M41.4,145.2c-8.8,0-16.5-2.2-23-6.5c-6.5-4.3-11.2-9.5-14.1-15.4c-2.9-5.9-4.3-12-4.3-18.1h12.4
		c0.3,7.7,3,14.3,8.3,19.6c5.3,5.3,12.1,8,20.5,8c10,0,17.8-3,23.5-9.1c5.7-6.1,8.5-13.8,8.5-23.1c0-8.9-3-16.3-8.9-22.2
		c-5.9-5.9-14-8.8-24.3-8.8H28.2V53.8l44-38.2v-0.8h-69V2.6h80.4v18.2L41,57v1h2.2c13.7,0,24.4,4.4,32,13.2
		c7.6,8.8,11.4,18.5,11.4,29.2c0,12.8-4,23.5-12.1,32C66.4,140.9,55.4,145.2,41.4,145.2z"/>
	<path class="st0" d="M199.7,133.8c-8.5,7.7-19.4,11.6-32.7,11.6c-13.3,0-24.2-3.9-32.6-11.6c-8.4-7.7-12.6-17.7-12.6-30
		c0-9.2,2.5-16.9,7.6-23.2c5.1-6.3,10.5-10.6,16.4-13v-1c-4.4-2.1-8.4-5.8-11.9-11.1c-3.5-5.3-5.3-11.6-5.3-19.1
		c0-10.8,3.7-19.6,11.2-26.3C147.3,3.4,156.3,0,167,0c10.7,0,19.7,3.4,27.2,10.1c7.5,6.7,11.2,15.5,11.2,26.3
		c0,7.5-1.8,13.8-5.3,19.1c-3.5,5.3-7.5,9-11.9,11.1v1c6,2.4,11.5,6.7,16.6,13c5.1,6.3,7.6,14,7.6,23.2
		C212.4,116.1,208.2,126.1,199.7,133.8z M143.8,124.7c5.6,5.7,13.3,8.5,23.2,8.5c9.9,0,17.6-2.8,23.2-8.5c5.6-5.7,8.4-12.6,8.4-20.9
		c0-8.9-3-16.1-9-21.5c-6-5.4-13.5-8.1-22.6-8.1c-9.1,0-16.6,2.7-22.6,8.1c-6,5.4-9,12.6-9,21.5C135.4,112.1,138.2,119,143.8,124.7z
		 M149.1,54.9c4.7,5,10.7,7.5,17.9,7.5s13.2-2.5,17.9-7.5c4.7-5,7.1-11,7.1-18.1c0-7.2-2.3-13.1-6.9-17.7
		c-4.6-4.6-10.6-6.9-18.1-6.9c-7.5,0-13.5,2.3-18.1,6.9c-4.6,4.6-6.9,10.5-6.9,17.7C142,43.9,144.4,49.9,149.1,54.9z"/>
</g>
<g>
</g>
<g>
</g>
<g>
</g>
<g>
</g>
<g>
</g>
<g>
</g>
</svg>
