<?xml version="1.0" encoding="utf-8"?>
<!-- Generator: Adobe Illustrator 25.2.1, SVG Export Plug-In . SVG Version: 6.00 Build 0)  -->
<svg version="1.1" id="Layer_1" xmlns="http://www.w3.org/2000/svg" xmlns:xlink="http://www.w3.org/1999/xlink" x="0px" y="0px"
	 viewBox="0 0 247.4 216.6" style="enable-background:new 0 0 247.4 216.6;" xml:space="preserve">
<style type="text/css">
	.st0{fill:#273E98;}
</style>
<g>
	<path class="st0" d="M65,168.5c-7.9,0-14.8-2-20.7-5.8c-5.9-3.9-10.1-8.5-12.7-13.9c-2.6-5.3-3.9-10.8-3.9-16.3h11.2
		c0.2,7,2.7,12.8,7.5,17.6c4.7,4.8,10.9,7.2,18.4,7.2c9,0,16-2.7,21.1-8.2c5.1-5.5,7.7-12.4,7.7-20.8c0-8-2.7-14.7-8-20
		c-5.3-5.3-12.6-7.9-21.9-7.9H53.1V86.2l39.6-34.4v-0.7H30.6v-11h72.4v16.4L64.6,89.1V90h2c12.4,0,22,4,28.8,11.9
		c6.8,7.9,10.3,16.7,10.3,26.3c0,11.5-3.6,21.1-10.9,28.8C87.5,164.6,77.6,168.5,65,168.5z"/>
	<path class="st0" d="M207.4,158.2c-7.6,7-17.4,10.4-29.4,10.4c-12,0-21.8-3.5-29.3-10.4c-7.6-7-11.3-16-11.3-27
		c0-8.3,2.3-15.2,6.8-20.9c4.6-5.6,9.5-9.5,14.8-11.7v-0.9c-4-1.9-7.5-5.2-10.7-10c-3.2-4.7-4.8-10.5-4.8-17.2
		c0-9.7,3.4-17.6,10.1-23.7c6.7-6.1,14.9-9.1,24.5-9.1c9.6,0,17.8,3,24.5,9.1c6.7,6.1,10.1,14,10.1,23.7c0,6.7-1.6,12.5-4.8,17.2
		c-3.2,4.7-6.8,8.1-10.7,10v0.9c5.4,2.2,10.4,6.1,14.9,11.7c4.6,5.6,6.8,12.6,6.8,20.9C218.9,142.3,215.1,151.3,207.4,158.2z
		 M157.1,150c5,5.1,12,7.6,20.9,7.6c8.9,0,15.8-2.5,20.9-7.6c5-5.1,7.6-11.4,7.6-18.8c0-8-2.7-14.5-8.1-19.4s-12.2-7.3-20.3-7.3
		c-8.2,0-14.9,2.4-20.3,7.3c-5.4,4.9-8.1,11.3-8.1,19.4C149.6,138.7,152.1,144.9,157.1,150z M161.9,87.2c4.3,4.5,9.6,6.8,16.1,6.8
		c6.5,0,11.8-2.2,16.1-6.8c4.3-4.5,6.4-9.9,6.4-16.3c0-6.5-2.1-11.8-6.2-15.9c-4.1-4.1-9.6-6.2-16.3-6.2c-6.7,0-12.1,2.1-16.3,6.2
		s-6.2,9.4-6.2,15.9C155.5,77.3,157.6,82.7,161.9,87.2z"/>
</g>
<g>
</g>
<g>
</g>
<g>
</g>
<g>
</g>
<g>
</g>
<g>
</g>
</svg>
