<?xml version="1.0" encoding="UTF-8" standalone="no"?>

<svg
   width="783"
   height="445"
   viewBox="0 0 207.16614 117.7381"
   version="1.1"
   id="svg602"
   xmlns="http://www.w3.org/2000/svg"
>
  <defs
     id="defs599" />
  <g
     id="layer1"
     transform="translate(7.9300056,-57.178871)">
    <path
       style="stroke:none;stroke-width:0.26399"
       d="m -7.9299856,174.50725 h 3.7085784 c 0,-10.49057 2.378815,-25.08977 15.3641132,-26.83483 0,1.81346 0.747649,5.72188 -0.272263,7.25645 -0.495783,0.74585 -1.6749001,1.02842 -2.375689,1.56538 -1.7815488,1.36568 -2.8630491,3.41223 -2.9108367,5.64793 -0.1717873,8.04124 11.5910577,10.75262 14.4199087,2.89396 0.97827,-2.7169 0.317348,-5.83184 -1.733601,-7.86814 -0.807517,-0.80162 -2.290949,-1.25018 -2.881778,-2.20123 -1.065211,-1.71427 -0.272263,-5.82843 -0.272263,-7.82051 1.797151,0 7.005506,-0.88056 8.317018,0.42172 1.167143,1.15915 0.424633,5.38407 0.424633,6.94469 v 19.99458 h 3.973477 v -12.89124 h 0.264898 c 0.499598,1.06393 1.297208,1.7861 2.108857,2.63087 1.023303,1.06497 1.992037,2.71136 3.454011,3.22071 2.578787,0.89843 5.732405,-4.40434 7.417162,-5.85158 v 12.89124 h 3.708571 v -19.99458 c 0,-1.56062 -0.742505,-5.78554 0.424638,-6.94469 0.642645,-0.63798 1.932695,-0.42172 2.75415,-0.42172 h 6.622457 c 0,1.9292 0.717351,5.62215 -0.272311,7.31143 -0.546485,0.93316 -1.787537,1.40882 -2.517594,2.20545 -1.571642,1.7148 -2.395747,4.23938 -2.497727,6.53139 -0.06886,1.55116 -0.309142,8.38404 3.129244,6.0844 2.792826,-1.86764 -1.423829,-10.15251 4.012682,-10.6458 5.292139,-0.48012 1.474153,9.22199 4.295057,10.72104 3.452953,1.83477 2.859845,-4.25463 2.857202,-5.89655 -0.0037,-2.39673 -0.609537,-4.70714 -2.206343,-6.57322 -0.726353,-0.84872 -2.22329,-1.41303 -2.667,-2.42776 -0.740922,-1.6948 -0.15973,-4.68295 -0.15973,-6.52113 12.268509,2.82029 14.304519,16.09379 14.304519,26.57174 h 3.708579 c 0,-5.12624 0.01164,-10.0086 -1.364756,-14.99594 -0.812444,-2.94419 -3.122366,-5.62004 -3.138254,-8.68185 -0.08292,-15.78415 -2.63e-4,-31.57118 -2.63e-4,-47.35559 0,-9.811018 0.825953,-19.991711 -4.055334,-28.939521 C 56.0083,52.526733 16.649813,51.324428 2.4114918,71.640396 c -6.41049,9.146785 -5.8382039,19.918543 -5.8382039,30.518044 0,16.30636 0.2217197,32.62958 -0.00105,48.9341 -0.039763,2.91053 -2.3598395,5.60112 -3.1374816,8.41877 -1.3764856,4.98734 -1.3647586,9.8697 -1.3647586,14.99594 M 109.94984,100.84301 h 7.68205 c 0.0289,3.46511 0.90888,7.12727 2.3841,10.26036 l -4.50329,2.10471 v -1.05236 h -11.39062 v 14.99595 l 3.17877,0.26308 c -2.88474,8.46035 -5.21266,19.92144 0.50967,27.62411 1.22754,1.65217 2.81004,3.18596 4.52341,4.33565 1.05536,0.70824 2.71494,1.27177 3.44685,2.34122 2.69588,3.93919 -0.43814,9.20487 5.0299,11.92913 2.43098,1.21126 5.3128,0.86239 7.94696,0.86239 h 14.30452 c 4.8826,0 12.23857,1.35464 16.6886,-0.86239 5.19413,-2.58772 2.78621,-7.59321 4.90433,-11.7105 0.88794,-1.72612 3.97957,-2.70455 5.42671,-4.02603 3.83917,-3.50641 6.63624,-8.85707 6.33293,-14.18221 -0.25537,-4.4801 -1.58065,-9.02571 -2.46541,-13.41741 -0.23311,-1.15732 -1.29641,-3.81212 -0.65774,-4.88447 0.50542,-0.84872 2.52686,-0.88055 3.41269,-1.1297 2.78064,-0.78162 5.4879,-1.85292 7.94694,-3.37381 8.84524,-5.47141 14.10877,-14.77627 14.5591,-25.076372 0.65165,-14.91561 -11.11302,-28.123637 -25.68483,-30.402519 -3.10223,-0.485185 -6.16974,-0.459217 -9.27144,-0.0031 -1.51046,0.222149 -3.80474,1.276811 -5.28764,0.958739 -1.91947,-0.411731 -4.10726,-3.842169 -5.83809,-4.993962 -4.95865,-3.299933 -11.08415,-4.595761 -16.95351,-3.544763 -4.7303,0.847012 -9.12311,3.244502 -12.43991,6.678466 -1.36316,1.411355 -3.1009,5.699114 -5.04843,6.011819 -2.77031,0.444853 -5.92923,0.03896 -8.73662,0.03896 H 92.201643 c -2.922625,0 -7.890528,-0.970604 -9.955147,1.590096 -1.357085,1.683203 -0.905689,4.29068 -0.905689,6.302503 v 15.25903 c 0,2.098638 -0.395753,4.939707 1.617209,6.315383 3.936651,2.69059 10.053429,-0.766356 14.230605,0.94659 3.490829,1.43171 3.655069,7.38089 8.257959,7.37959 4.23253,-0.001 4.50326,-4.42934 4.50326,-7.53822 m 35.7613,21.5731 -1.32449,-2.89396 c 11.90931,-8.0707 11.12574,-20.409995 11.12574,-33.148914 0,-8.717639 -5.46565,-17.8363 -15.36412,-17.592919 -10.70402,0.263193 -15.09922,9.671564 -15.09922,18.908353 0,12.3777 -0.38066,24.03585 11.12575,31.83348 l -1.3245,2.89396 c -4.84684,-1.82451 -8.93291,-7.03231 -11.04389,-11.57582 -2.83812,-6.10913 -2.46594,-12.132229 -2.46594,-18.679144 0,-9.709587 -1.65588,-20.34736 7.15227,-27.035812 1.45085,-1.101701 3.0601,-2.026556 4.76817,-2.675932 1.92819,-0.733038 4.01957,-1.27818 6.09266,-1.32864 2.36978,-0.05767 4.63069,0.224123 6.88737,0.961818 1.80952,0.591551 3.46646,1.381994 5.03306,2.464832 9.76258,6.748093 7.94696,18.104756 7.94696,28.402989 0,10.779449 -1.35733,24.891169 -13.50982,29.465709 m -77.615258,25.78249 c -2.444752,-1.20783 -4.508837,-2.88002 -7.15226,-3.74951 -5.200223,-1.71007 -10.762297,-1.24914 -16.158811,-1.24914 0,-1.58484 -0.585688,-4.60401 0.272321,-5.97866 0.881578,-1.41276 3.903541,-2.35278 5.290553,-3.34198 2.935866,-2.09417 5.659556,-4.98602 7.559932,-8.04308 4.9438,-7.95259 4.625398,-15.74049 4.625398,-24.73014 0,-3.407761 0.602374,-7.448516 -0.09114,-10.7863 -0.24132,-1.160472 -1.088463,-1.947626 -2.292963,-2.031553 -4.287904,-0.298841 -8.080184,-0.226488 -12.185318,-1.918135 -3.397852,-1.400151 -6.625109,-3.516915 -9.270386,-6.058201 -1.286881,-1.23629 -2.717334,-4.015564 -4.505397,-4.501274 -1.756541,-0.477187 -4.355991,3.159222 -5.561807,4.207543 -4.186721,3.640218 -9.393302,6.34904 -14.834317,7.558711 -2.052725,0.456194 -6.5430203,-0.03445 -7.4453694,2.221498 -1.101819,2.754261 -0.2366879,7.305655 -0.2366879,10.255381 0,9.51059 -0.6211863,18.35556 5.1493623,26.57175 1.972381,2.80819 4.470295,5.47089 7.300868,7.43983 1.328731,0.92422 4.183541,1.80635 5.025655,3.15598 0.858006,1.37463 0.272315,4.39382 0.272315,5.97866 -5.396513,0 -10.958481,-0.46093 -16.1588088,1.24914 -2.6433694,0.86949 -4.7075908,2.54166 -7.15225965,3.74951 v -45.2509 c 0,-9.373513 -0.80971569,-18.912519 4.08690675,-27.361016 C 16.46136,55.179381 54.877444,56.69228 65.113652,77.69136 c 3.905922,8.013093 2.982225,17.14957 2.982225,25.78249 v 44.72473 m 95.893263,-78.925992 -2.38409,3.157039 -1.05959,-2.36778 3.44368,-0.789259 m 25.16535,8.944945 h -10.59593 l -5.03308,-8.944945 c 5.76737,0.249748 12.3668,4.345559 15.62901,8.944945 m -14.56941,0 h -11.65554 l 5.56287,-8.681859 c 2.70065,1.277233 5.28101,5.888537 6.09267,8.681859 m -22.78127,6.314082 c -2.1878,-0.918542 -6.03519,-2.634134 -7.84656,-4.131015 -1.50701,-1.245295 -2.06251,-2.875881 -4.07388,-3.614417 -3.68659,-1.353738 -6.68391,1.67652 -7.15226,5.114565 h 3.70859 c 0.48927,-2.350043 3.70857,-2.192987 3.8842,0.263296 0.0877,1.227926 -0.93562,2.000039 -2.03018,2.240494 -2.98806,0.65614 -6.4781,1.048931 -9.53608,1.179423 0,-3.687979 0.65482,-7.26385 3.46751,-9.951622 7.69531,-7.353376 19.57204,-1.056268 19.57866,8.899276 m -33.64211,-10.260382 -0.52981,6.84025 c -1.0707,-0.495941 -1.81031,-1.284512 -2.64897,-2.104296 -0.98808,-0.966001 -4.3597,-1.880438 -3.65375,0.788872 0.56846,2.149569 5.27942,3.69236 4.99917,6.050982 -0.22544,1.897909 -4.34169,4.996805 -5.84871,6.050998 v 0.263089 c 0.72662,0.508284 1.52079,1.559842 2.38304,1.787143 1.33693,0.352537 3.53136,-2.706631 4.23943,-3.628751 h 0.2649 v 6.840249 h -11.39064 l 0.0226,5.524811 -0.38093,1.75059 -1.99124,-1.48775 -4.548037,-5.517197 -4.228044,-0.270454 H 85.049383 V 74.534349 H 107.03595 L 118.1617,74.271263 M 86.373885,85.583987 v 0.26308 l 8.741643,8.681858 h 0.264901 l 2.384083,-2.367776 c -1.331641,-1.877647 -4.927114,-3.853426 -5.508038,-6.050994 -0.643427,-2.433257 5.188307,-4.155821 5.188307,-6.577159 0,-1.417144 -1.985147,-2.551494 -3.123944,-1.752895 -2.924486,2.050579 -5.414789,5.289065 -7.946952,7.803886 m 17.748195,-7.629512 -3.44368,14.995929 3.44368,0.789266 3.70858,-14.995935 -3.70858,-0.78926 M 10.083113,92.161149 c 5.771291,-0.725067 11.209974,-2.57088 16.158808,-5.636628 1.78939,-1.10865 3.41772,-2.42882 5.033072,-3.769714 0.616948,-0.512104 1.51151,-1.593259 2.384085,-1.589097 1.1735,0.0059 2.408727,1.835316 3.178782,2.5663 2.179317,2.06876 4.735591,3.838539 7.41716,5.203962 3.068585,1.562472 6.397032,2.551414 9.801243,3.033387 1.002638,0.141803 3.568711,-0.217048 4.230953,0.613514 0.649268,0.814259 0.27232,2.806086 0.27232,3.787662 v 9.997295 c 0,9.10122 -1.627268,17.06301 -9.006552,23.33578 -14.468753,12.29903 -35.126172,2.47564 -39.231754,-14.65392 -0.5968164,-2.49011 -0.238117,-5.34487 -0.238117,-7.89261 V 92.161149 m 168.210547,1.052344 h -15.09922 v -11.31272 h 9.27145 l 3.57268,0.270396 1.08291,2.623553 1.17218,8.418771 m 17.21841,0 h -13.50984 l -1.85429,-11.31272 h 8.21187 c 1.0082,0 2.48315,-0.259353 3.38725,0.270396 2.94646,1.726429 3.06726,8.139695 3.76501,11.042324 M 128.75764,89.2672 c 5.1226,-0.945009 11.86294,0.106807 14.83432,-4.998648 1.73878,0.472236 3.32977,1.259659 4.76817,2.341469 5.12844,3.856326 4.55678,12.440847 -0.0238,16.818059 -4.27627,4.08629 -11.09183,4.17547 -15.60122,0.44883 -1.516,-1.25255 -2.64182,-3.03758 -3.30274,-4.87551 -1.09987,-3.058648 -0.6747,-6.539538 -0.6747,-9.7342 m 5.30962,0.469871 c -2.11706,0.717964 -1.05032,3.977075 1.03628,3.269636 2.11709,-0.717956 1.05033,-3.977075 -1.03628,-3.269636 m 11.39065,0 c -2.11708,0.717964 -1.05032,3.977075 1.03628,3.269636 2.11706,-0.717956 1.05032,-3.977075 -1.03628,-3.269636 m -12.46189,8.211985 c 2.73004,6.164114 11.83938,6.164114 14.56941,0 l -3.44369,-1.578521 c -1.75759,3.336457 -5.92443,3.336457 -7.68204,0 l -3.44368,1.578521 m 45.29764,-0.789266 -1.09402,8.15569 -1.16027,2.88658 -4.10327,0.27045 h -10.33105 l 1.58939,-11.31272 h 15.09922 m 17.21841,0 c -0.53696,2.86265 -0.92451,9.378 -3.765,11.04227 -0.90411,0.52986 -2.37906,0.27045 -3.38726,0.27045 h -8.21186 l 1.8543,-11.31272 H 195.5121 M 19.623394,99.183724 c -2.824402,0.760047 -1.805177,5.132556 1.054561,4.435106 2.918652,-0.71191 1.839455,-5.213844 -1.054561,-4.435106 m 28.341227,-0.02027 c -2.943022,0.679288 -1.820647,5.159646 1.057212,4.455366 2.860634,-0.70007 1.771636,-5.108349 -1.057212,-4.455366 m 82.382359,7.204366 2.1192,1.57852 -0.5298,2.10469 h -0.26489 l -1.32451,-3.68321 m 20.1323,0 -1.5894,3.68321 h -0.26489 l -0.5298,-2.10469 2.38409,-1.57852 m -116.025544,3.94629 c -2.483423,-3.54272 -5.947235,-0.25783 -3.33931,2.57456 2.33614,2.53721 8.802044,0.67062 7.116235,-3.34829 -0.899862,-2.1447 -3.193884,-0.6843 -3.776925,0.77373 m 110.197774,-0.78927 c 0.45085,1.19521 1.26065,3.52643 0.58967,4.7253 -2.01667,3.60298 -9.05345,4.37461 -10.1149,-0.51696 -0.26384,-1.21704 0.35524,-3.07311 0.78358,-4.20834 3.01216,0.84058 5.72948,0.84058 8.74165,0 m -63.310745,2.63087 v 14.99595 H 92.731401 V 112.15571 H 81.340765 m 15.099212,14.99595 h 3.973483 v -14.99595 l -3.701156,0.42173 -0.272327,4.05074 v 10.52348 m 78.145073,-14.99595 -3.9735,6.84026 h -0.26489 c -1.90673,-2.77531 -4.09797,-4.70793 -6.88736,-6.57717 2.91071,-1.21308 7.95834,-0.26309 11.12575,-0.26309 m 14.56941,0 c -3.05137,4.5685 -10.00867,8.82919 -15.62901,8.94495 1.08555,-1.89264 2.47228,-3.58824 3.50169,-5.52482 0.50675,-0.95316 0.94647,-2.54562 1.8996,-3.14966 2.09481,-1.32701 7.74854,-0.27047 10.22772,-0.27047 m -67.28422,2.36779 c 1.69481,3.54246 4.8381,6.62794 7.94694,8.97151 1.31602,0.99209 3.21588,1.67797 4.34356,2.85528 0.6278,0.65535 0.52767,1.82451 0.83839,2.64297 0.78252,2.05839 2.88263,3.79792 5.14911,3.87684 2.26276,0.0786 4.43043,-1.62376 5.30697,-3.61375 0.38729,-0.87923 0.26808,-2.19889 0.94543,-2.90606 1.1274,-1.17731 3.02752,-1.86319 4.34354,-2.85528 3.0956,-2.33358 6.25902,-5.44378 7.94694,-8.97151 7.58353,1.1289 10.10668,8.61871 11.39064,14.99594 1.9131,9.50084 5.89213,21.32868 -4.76817,27.361 0.003,-4.45932 2.20105,-9.58004 1.37429,-13.94359 -0.67813,-3.57955 -3.62088,-3.73636 -5.34036,-6.18491 -1.71706,-2.44538 0.64875,-6.50639 1.31709,-8.81103 l -3.17878,-1.31543 c -1.57641,3.76057 -2.11919,6.15938 -2.11919,10.26037 h -34.17191 c 0,-4.10099 -0.54278,-6.4998 -2.11919,-10.26037 l -3.17879,1.31543 c 0.66834,2.30464 3.03415,6.36565 1.31709,8.81103 -0.45272,0.64456 -1.48635,0.87319 -2.11177,1.33307 -1.66198,1.22203 -2.85481,2.8274 -3.26541,4.85184 -0.87072,4.29227 1.40819,9.5361 1.41111,13.94359 -10.76335,-6.09045 -6.73636,-18.56207 -4.61559,-28.15028 1.35654,-6.13464 3.97852,-13.1259 11.23806,-14.20666 m -32.847414,8.94494 h -3.973475 c 0,-1.88054 -0.678938,-5.32671 0.159726,-7.01968 0.435239,-0.87843 2.957068,-0.92106 3.541432,-0.18811 1.045294,1.31097 0.272317,5.56034 0.272317,7.20779 m 22.781264,-7.62951 -3.44368,7.62951 h -0.52978 c 0,-1.46355 -0.78253,-6.40931 0.42462,-7.35905 0.78066,-0.61405 2.60448,-0.27046 3.54884,-0.27046 m -88.991318,3.3533 c -4.16235,1.64534 2.473888,5.14572 3.958908,5.67267 5.527107,1.96052 13.257371,2.14942 18.274023,-1.2907 1.629392,-1.11732 3.197327,-4.91288 -0.260929,-4.50667 -1.469122,0.17257 -2.618785,1.62115 -3.973472,2.17125 -2.641839,1.07235 -5.931609,1.20073 -8.741652,0.8382 -1.913626,-0.24704 -3.85957,-0.80716 -5.562867,-1.71191 -1.125554,-0.59773 -2.320777,-1.71558 -3.694011,-1.17284 m 117.074528,2.56036 c 3.22462,-0.69877 3.38169,6.81578 0.78675,7.378 -3.2246,0.69876 -3.38169,-6.81577 -0.78675,-7.378 m -58.546535,9.34537 v 14.99593 h 3.708586 v -14.99593 h -3.708586 m 7.682061,0 v 14.99593 H 100.41346 V 131.09796 H 89.022826 m 7.682052,3.94629 -0.264901,7.36643 h -3.708576 v -7.62951 l 3.973477,0.26308 m -55.893576,3.42012 c 0,4.04917 0.264901,8.05678 0.264901,12.102 0,1.51879 0.355225,3.56929 -0.227289,4.99864 -1.043697,2.56062 -4.43784,5.15913 -6.395178,7.10334 h -0.2649 l -6.130279,-6.84025 -0.227283,-5.52482 v -11.83892 l 6.357562,0.78427 6.622466,-0.78427 m 78.940018,2.21888 c 2.88263,-0.78716 6.81292,-0.11418 9.80097,-0.11418 h 20.92699 c 2.91044,0 8.25212,-1.02288 10.85686,0.31018 1.82833,0.9358 1.96105,2.91105 1.70488,4.68846 -0.58091,4.03049 -1.17243,8.05967 -1.65985,12.102 -0.14119,1.17178 0.0114,4.78264 -1.18489,5.36617 -2.10302,1.0255 -6.58035,0.15864 -8.92232,0.15864 h -21.72167 -6.62246 c -0.77351,0 -2.10198,0.23861 -2.75415,-0.27045 -1.01853,-0.79505 -0.85033,-4.05022 -0.99549,-5.25436 -0.52529,-4.35645 -1.54621,-8.77763 -1.78859,-13.15434 -0.0892,-1.61483 0.66013,-3.36803 2.35972,-3.83212 M 12.2023,159.08906 c 4.159781,-0.92922 6.025859,5.48879 1.854289,6.62216 -4.4587443,1.21178 -6.3351536,-5.6211 -1.854289,-6.62216 m 0.139999,2.53537 c -1.105872,0.79426 0.27009,2.52827 1.330637,1.66297 1.096495,-0.89476 -0.23189,-2.45197 -1.330637,-1.66297 m 147.673361,5.25331 c -0.20265,4.34331 -4.09135,3.94631 -7.41716,3.94631 h -24.10576 c -3.41137,0 -7.7345,0.60246 -7.94696,-3.94631 z"
       id="path992" />
  </g>
</svg>
