<svg xmlns="http://www.w3.org/2000/svg" height="48" viewBox="0 96 960 960" width="48"><path d="M480.165 771.614q11.758 0 20.642-8.502 8.885-8.501 8.885-20.19V570.614l55.693 55.693q3.406 5.231 9.572 6.962 6.166 1.731 11.108 1.923 4.941.192 10.515-1.731 5.574-1.923 9.804-7.154 9.077-8.076 9.077-19.999 0-11.923-9.077-21L505.231 484.155q-10.686-10.616-25.357-10.616t-24.105 10.616L354.385 584.539q-8.692 8.692-8.884 20.807-.193 12.115 8.884 20.692t20.355 8.577q11.279 0 20.644-9.077l55.924-54.924v172.308q0 11.689 8.549 20.19 8.549 8.502 20.308 8.502ZM155.309 895.999q-28.254 0-49.473-21.165-21.22-21.165-21.22-49.528V339.079q0-28.362 21.22-49.527 21.219-21.165 49.473-21.165H388.77q14.631 0 27.662 5.851 13.032 5.851 22.888 15.468l41.295 41.68h325.307q28.362 0 49.527 21.165 21.165 21.165 21.165 49.528v423.227q0 28.363-21.165 49.528t-49.527 21.165H155.309ZM143 339.079v486.227q0 5.385 3.654 8.847 3.655 3.462 8.655 3.462h650.613q5.385 0 8.847-3.462 3.461-3.462 3.461-8.847V402.079q0-5.385-3.461-8.847-3.462-3.462-8.847-3.462H457.154l-59.537-59.537q-1.923-1.924-4.039-2.693-2.115-.769-4.423-.769H155.309q-5 0-8.655 3.462-3.654 3.461-3.654 8.846Zm0 0v-12.308V837.615 339.079Z"/></svg>