<?xml version="1.0" encoding="UTF-8" standalone="no"?>

<svg
   width="512"
   height="490.48804"
   viewBox="0 0 135.46497 129.77333"
   version="1.1"
   id="svg602"
   xmlns="http://www.w3.org/2000/svg"
>
  <defs
     id="defs599" />
  <g
     id="layer1"
     transform="translate(-2.9927057,-35.00206)">
    <path
       style="fill:#050505;stroke:none;stroke-width:0.263666"
       d="m 13.082232,66.592888 c -1.025447,2.751087 -1.288981,5.778495 0.914288,8.057617 0.841962,0.870889 2.403496,1.303041 3.034395,2.29785 1.45488,2.293627 1.386538,6.050595 2.711326,8.628452 1.773309,3.450858 4.774013,5.460517 7.050599,8.437303 -3.025405,0.09809 -2.757487,3.354358 -5.274337,4.244222 C 16.656641,99.977697 9.5577093,100.41248 5.7242227,104.08192 2.7684949,106.91131 3.06294,110.84626 3.06294,114.58003 v 22.67524 18.19292 c 0,1.65635 -0.6237587,5.30996 1.8464744,5.4824 3.0252227,0.2112 2.10851,-5.24826 2.10851,-7.06439 v -23.7299 -20.03858 c 3.1084846,3.10835 7.7629476,6.43238 9.5234956,10.54662 0.995997,2.32764 0.495797,5.42492 0.495797,7.90996 v 16.61093 11.60129 c 7.9e-5,1.36263 -0.242494,3.40287 1.332777,4.0217 2.083511,0.81841 2.619121,-1.46678 2.622206,-2.96703 v -13.44695 -16.0836 c 0,-2.93855 0.376488,-6.14841 -0.629264,-8.96463 -1.655846,-4.63656 -7.291118,-9.87745 -11.235687,-12.65595 v -0.26366 l 10.546623,-3.42766 c 1.79319,7.56695 8.203504,15.50855 13.974279,20.45307 1.617587,1.38609 4.517119,4.59147 6.855301,4.26664 2.467914,-0.34276 5.425183,-3.53576 7.118978,-5.20951 5.718372,-5.65035 10.266873,-11.99072 13.183278,-19.5102 2.529873,0.96871 5.980983,2.48267 8.70096,2.57259 1.747841,0.0577 2.707055,-1.97038 1.467563,-3.25311 -0.892246,-0.92335 -2.651943,-1.14615 -3.840556,-1.50263 -2.892674,-0.867988 -6.240166,-1.442782 -8.953285,-2.773766 -2.071095,-1.016167 -1.81508,-3.805746 -4.49366,-4.007714 1.413779,-2.64035 4.524239,-4.368675 6.097794,-7.118968 1.740723,-3.042175 1.801627,-6.869288 3.401286,-9.727946 0.631223,-1.128222 2.197127,-1.591745 3.108096,-2.48004 2.32869,-2.271476 1.893381,-5.358473 0.839769,-8.094268 4.018794,-1.366315 5.065016,-6.820238 3.327993,-10.282958 -0.621993,-1.239992 -1.931881,-2.013165 -2.506143,-3.208758 -0.414484,-0.862581 -0.159777,-2.164246 -0.370976,-3.119216 -0.515469,-2.330857 -2.376944,-4.123202 -4.669516,-4.682912 -1.37766,-0.336385 -2.97204,0.267462 -4.218651,-0.145675 -3.441365,-1.140512 -5.935644,-3.876913 -9.755627,-4.594611 -5.930104,-1.114197 -14.567002,-1.212518 -20.302256,0.723235 -2.571448,0.867908 -4.638293,3.111966 -7.118967,3.8781 -1.483383,0.458118 -3.1295,-0.270891 -4.745981,0.296201 -4.031157,1.414197 -3.187823,4.316048 -4.377746,7.415595 -0.500912,1.304775 -1.962014,2.145368 -2.6045149,3.438041 -1.7621554,3.545247 -0.6635403,8.750006 3.2909419,10.282958 M 24.683515,47.872631 c 6.528889,-4.440445 13.262643,-3.703473 20.829589,-3.691318 2.787206,0.0045 7.907857,0.935196 9.568953,3.513502 0.671555,1.041928 -0.513096,2.920835 -0.443493,4.1328 0.101778,1.772361 1.554048,3.099178 1.677445,4.74598 0.164523,2.19499 -0.905167,3.782811 0.03214,6.06431 0.730881,1.778688 2.224548,3.283954 3.930199,4.145613 1.620483,0.818682 4.263739,1.312 3.8395,3.764091 -0.464579,2.687543 -3.815247,1.720417 -4.698524,3.959198 -0.517571,1.312271 -0.330112,3.075929 -0.633849,4.478366 -0.699508,3.229905 -2.220334,6.202207 -4.386874,8.699904 C 46.50287,96.78761 31.618426,95.591888 24.663346,86.104141 21.875295,82.300768 22.381664,78.557768 20.833078,74.506807 20.034619,72.418316 17.05446,73.280766 16.381902,71.071249 15.33159,67.620393 21.785569,66.25856 23.37716,63.692566 c 1.597472,-2.575485 0.419735,-4.466283 0.637202,-7.118971 0.118493,-1.445203 1.348885,-2.725669 1.600294,-4.218649 0.272524,-1.618248 -0.501576,-2.976706 -0.931167,-4.482315 m -6.064095,1.169199 c 2.068457,-0.372375 3.831931,1.950045 2.852914,3.830059 -0.555227,1.066237 -2.003383,1.625762 -2.155097,2.910921 -0.121628,1.0303 0.775837,1.96647 1.081108,2.90011 0.692096,2.116708 -0.613233,4.501036 -2.833798,4.919737 -3.474454,0.655209 -5.886335,-3.027145 -3.956408,-5.963008 0.807502,-1.228392 2.732182,-1.507957 3.221967,-2.923103 0.672216,-1.94216 -1.753482,-5.036909 1.789314,-5.674716 m 42.186549,-0.01324 c 4.449096,-0.690566 1.85858,4.241087 2.730786,5.93535 0.59746,1.160656 2.136214,1.457201 2.965706,2.428307 1.846453,2.161821 0.578485,5.80937 -2.269103,6.243627 -2.873167,0.438477 -5.08954,-2.172867 -4.368936,-4.952958 0.2605,-1.005699 1.197301,-1.801231 1.116095,-2.896471 C 60.8563,54.112142 55.651014,49.828684 60.805943,49.02859 m 18.456326,71.35208 c 1.274564,2.78247 4.164595,5.05315 6.591644,6.81523 8.795361,6.38493 20.492347,7.52713 30.321537,2.85602 2.99524,-1.42353 5.77534,-3.45427 8.16968,-5.74 0.95869,-0.91492 2.09825,-3.19483 3.4419,-3.49198 1.0035,-0.22201 2.20266,0.88828 2.88608,1.48575 3.50781,3.06591 3.43161,6.98925 3.43161,11.25827 v 17.66558 c 0,2.0711 -1.16567,9.49092 1.84644,9.70105 1.3803,0.0965 2.02206,-1.1219 2.09694,-2.3184 0.18562,-2.9644 0.0116,-5.99418 0.0116,-8.96464 0,-7.44038 1.11241,-15.90457 -0.38231,-23.20257 -0.69872,-3.41236 -3.02609,-6.92254 -6.20933,-8.43729 1.95825,-3.2315 2.70679,-7.1878 0.49886,-10.54663 -0.84822,-1.29038 -2.42151,-2.0993 -3.1284,-3.43794 -0.54552,-1.03357 -0.46774,-2.33001 -1.01168,-3.41737 -0.54368,-1.086833 -2.10353,-2.229031 -2.16391,-3.437945 -0.19616,-3.933889 2.56468,-7.277166 3.84451,-10.799999 1.58911,-4.373953 1.85858,-9.408382 1.09448,-13.974279 C 127.1835,51.970258 101.016,42.088283 85.326577,56.092037 77.301919,63.254618 73.84183,74.08653 76.595029,84.522149 c 1.002452,3.799159 5.378517,8.866016 4.309088,12.919611 -0.309287,1.172525 -1.523993,2.073731 -2.069517,3.164 -0.596413,1.19176 -0.489888,2.82122 -1.309627,3.86928 -1.423532,1.82061 -3.075126,2.706 -3.788611,5.09534 -0.516254,1.72938 -0.558706,3.52969 -0.06773,5.27331 0.250746,0.89119 1.249517,2.18949 0.842675,3.11917 -0.531809,1.21602 -2.222166,2.17814 -3.072231,3.20881 -1.882571,2.28256 -2.71865,5.26013 -2.723396,8.17363 -0.01317,8.26143 0,16.52313 0,24.78457 0,1.70565 -0.870627,8.10059 2.607913,6.65861 1.195198,-0.49543 1.081555,-1.89391 1.083405,-2.96729 v -8.43731 -13.44694 c 0,-6.41393 -0.04008,-12.67018 6.855301,-15.55627 M 125.14011,86.631475 c -1.80109,-1.915271 -2.98311,-3.989524 -5.27331,-5.472905 -5.24984,-3.399968 -11.92823,-3.909112 -17.6656,-6.182167 -2.307599,-0.914136 -5.830432,-4.172248 -8.172576,-4.21417 -1.015899,-0.01819 -1.676645,0.893035 -2.197121,1.635254 -1.739144,2.479511 -4.664779,3.819987 -6.308199,6.139718 -0.553969,0.782031 -0.375199,1.786333 0.390745,2.361388 3.309532,2.484516 6.321652,-5.128293 8.914807,-5.147016 1.710658,-0.01242 4.435119,2.087436 6.054024,2.780087 3.73983,1.600192 7.81716,2.168913 11.60129,3.617493 v 0.263666 l -5.56071,2.717604 -3.14026,-0.407888 -4.218646,0.854268 c -0.932849,-1.220769 -1.961152,-2.270681 -3.42766,-2.828603 -6.977908,-2.653794 -11.91109,7.371826 -5.799591,11.551714 3.098334,2.119351 6.93283,1.116366 9.059028,-1.8678 1.158289,-1.625501 1.158019,-3.698708 3.595869,-3.895659 3.75065,-0.303214 3.84794,4.759429 6.85531,6.268651 3.96026,1.987246 8.87657,-0.939445 9.40864,-5.273318 0.23914,-1.945588 -0.8055,-3.682611 -1.76234,-5.27331 5.14649,2.448929 5.58417,8.367429 3.93416,13.183278 -2.48479,7.25318 -9.21881,12.37277 -16.85377,12.89589 -7.603852,0.52126 -14.971468,-3.69949 -18.385404,-10.522897 -1.238445,-2.475556 -1.49077,-4.982493 -1.975119,-7.646302 -0.396294,-2.179722 -2.285985,-4.231311 -3.088579,-6.327977 -1.965628,-5.135151 -2.111961,-10.855111 -0.407627,-16.083599 1.103435,-3.385993 2.894253,-6.428431 5.40119,-8.96463 11.354235,-11.487408 31.157889,-8.972804 38.544479,5.800643 1.74811,3.496206 2.32263,7.213625 2.32263,11.073951 0,3.117588 -0.51678,6.12285 -1.84566,8.964636 M 30.485485,68.354438 c -2.475089,0.442695 -2.30112,6.360139 0.522055,6.015789 2.811198,-0.343023 2.387753,-6.536001 -0.522055,-6.015789 m 18.720254,0 c -2.475033,0.442695 -2.301008,6.360139 0.522055,6.015789 2.811207,-0.343023 2.387754,-6.536001 -0.522055,-6.015789 M 34.718365,80.23653 c -2.238254,0.902262 -0.408151,3.504643 0.7765,4.387659 2.234825,1.666365 5.374817,1.976175 7.908913,0.815777 1.564858,-0.716381 5.582326,-5.020452 1.580937,-5.346611 -2.028643,-0.165318 -3.09754,2.280706 -5.272254,1.995691 -1.779485,-0.233611 -3.071969,-2.627429 -4.994096,-1.852516 m 59.309204,6.034517 c 3.511239,0.08492 3.215405,5.534603 -0.263658,5.288864 -3.324568,-0.234667 -3.07171,-5.369286 0.263658,-5.288864 m 18.720261,0 c 3.51123,0.08492 3.2154,5.534603 -0.26366,5.288864 -3.32457,-0.234667 -3.07171,-5.369286 0.26366,-5.288864 m -81.736338,9.588721 c 5.957,2.785889 12.453452,2.315779 18.456596,0 v 0.263667 c -2.392238,1.396112 -6.442937,4.247125 -9.228303,4.398475 -2.690173,0.14607 -7.197801,-3.059587 -9.49196,-4.398475 l 0.263667,-0.263667 m 66.736141,0.798643 c -2.261993,1.256104 -0.104412,3.764359 1.289849,4.612039 2.554388,1.553 5.875528,1.64844 8.437028,0.0546 1.44832,-0.90148 4.02671,-4.880452 0.52628,-4.880452 -1.9324,0 -2.90612,2.253024 -5.00859,2.056064 -1.80215,-0.168746 -3.378083,-2.87896 -5.244567,-1.84223 m -44.32456,1.838016 c 1.218919,3.018452 -1.932405,5.381942 -3.744057,7.646302 -0.520999,0.65126 -1.559579,2.53752 -2.561778,2.39382 -1.431698,-0.2054 -3.379929,-3.83133 -3.977126,-5.03048 l 10.282961,-5.009623 m -16.347271,5.009643 c -0.750389,1.775 -2.569683,4.71197 -4.482318,5.27331 -1.796087,-2.71575 -7.040659,-6.58373 -5.800644,-10.019286 l 10.282962,4.745976 m 45.877811,-1.84566 c 1.751793,3.7467 4.800826,6.67022 8.173635,8.96463 l -3.42765,2.10933 -8.964637,3.42766 c -1.479158,-2.46 -2.282808,-5.03945 0.02765,-7.35496 0.886183,-0.88829 2.261994,-1.31516 2.93012,-2.41201 0.930738,-1.52795 -0.177182,-3.24652 1.26085,-4.73465 m 41.131839,0 c 0.53867,1.46704 0.11391,3.75328 0.98664,4.95349 1.37264,1.88705 3.80839,2.03418 4.23051,4.80214 0.20724,1.35814 -0.0644,4.1762 -1.80083,4.48707 -1.02962,0.1843 -2.48347,-0.7388 -3.41632,-1.11215 -2.88002,-1.15195 -6.0034,-2.10352 -8.70097,-3.63859 v -0.52733 c 4.00983,-2.23509 5.53435,-6.04136 8.70097,-8.96463 m -99.13827,3.42765 c 2.313349,2.87001 6.365151,10.38658 10.800008,6.53232 0.841358,-0.73114 1.473627,-1.67876 2.119603,-2.57733 h 0.263667 c 0,2.44602 -0.379151,5.23982 0.06017,7.6463 0.194326,1.06363 1.096588,2.21664 2.302325,1.9796 2.714175,-0.53418 1.592549,-7.58697 1.592549,-9.6259 1.305404,1.06284 2.067658,2.68807 3.691318,3.36754 4.073364,1.70459 7.527912,-4.67294 9.49196,-7.32253 h 0.263667 c -3.14158,7.54612 -9.000493,13.46251 -15.292604,18.4566 h -0.263667 c -4.594644,-3.97608 -8.879469,-7.74913 -12.209807,-12.91962 -0.943182,-1.4644 -2.836637,-3.76277 -2.819139,-5.53698 m 42.713828,5.45024 c -3.140516,0.86535 -6.850032,6.09358 -7.815048,9.05138 -1.055976,3.23597 -0.622245,6.92754 -0.622245,10.28295 v 18.4566 c 0,3.40708 -0.201184,6.88299 0.01158,10.28296 0.08016,1.27877 0.87458,2.60211 2.357428,2.28413 1.587009,-0.34066 1.583842,-2.05159 1.585953,-3.3388 v -9.75563 -17.92926 c 0,-2.84047 -0.51942,-6.25783 0.44823,-8.96463 1.148794,-3.21408 4.57196,-4.47493 6.059564,-7.38263 0.773857,-1.51239 -0.131572,-3.50887 -2.025485,-2.98707 m 44.295825,2.19607 2.63666,2.37299 c -4.73913,6.42025 -17.798488,5.99022 -22.675245,0 l 3.163987,-2.16522 8.437308,1.36289 8.43729,-1.57066 m 11.86495,6.06431 c -7.41533,10.84456 -23.52582,13.22995 -34.276528,6.237 -2.435737,-1.58436 -5.228754,-3.60984 -6.591634,-6.237 1.258476,-0.58876 3.330095,-1.85673 4.745976,-1.70645 1.559849,0.16559 3.178492,2.33319 4.482308,3.17269 2.819386,1.81534 6.12733,3.02451 9.491968,3.25601 4.27798,0.29478 8.41885,-0.69502 12.12862,-2.8439 1.52847,-0.88538 3.2858,-3.37386 5.00965,-3.59138 1.5261,-0.19248 3.61169,1.17067 5.00964,1.71303 m -42.421416,12.92805 c -1.747319,0.95605 -1.083405,4.40585 -1.083405,6.05587 v 17.92926 c 0,1.59228 -0.394445,6.25494 2.62215,5.113 2.01546,-0.76278 1.332834,-4.49734 1.332834,-6.16766 v -18.45659 c 0,-1.51846 -0.0084,-6.04085 -2.871579,-4.47388 m 42.173306,0 c -1.75285,0.93338 -1.07021,4.40691 -1.07021,6.05587 v 17.92926 c 0,1.63525 -0.50255,6.35909 2.60817,5.07662 1.98251,-0.81736 1.34681,-4.45358 1.34681,-6.13128 v -18.45659 c 0,-1.53401 -0.0702,-5.97308 -2.88477,-4.47388 z"
       id="path2954" />
  </g>
</svg>
