<?xml version="1.0" encoding="UTF-8" standalone="no"?>

<svg
   width="512"
   height="512"
   viewBox="0 0 135.46496 135.46496"
   version="1.1"
   id="svg602"
   xmlns="http://www.w3.org/2000/svg"
>
  <defs
     id="defs599" />
  <g
     id="layer1"
     transform="translate(-30.125221,-14.339248)">
    <path
       style="stroke:none;stroke-width:0.264548"
       d="M 73.47005,40.07823 H 60.546113 c -1.767942,0 -4.063203,-0.405075 -5.482467,0.90057 -1.490471,1.371294 -1.111379,3.638654 -1.111379,5.467664 0,3.950431 -1.265177,9.771521 4.220061,9.817694 v 5.837547 H 38.654546 c -2.240014,0 -5.819691,-0.69918 -7.501722,1.151592 -1.256953,1.383228 -0.9384,3.49457 -0.9384,5.216642 v 12.205782 49.353809 13.79785 c 0,1.49786 -0.496077,4.10008 0.851492,5.14685 1.781091,1.38324 6.971573,0.42536 9.171153,0.42536 h 24.792859 65.674702 c 10.67834,0 21.80875,0.92073 32.44146,-0.0156 3.27001,-0.2879 2.1103,-6.42874 2.1103,-8.74066 V 112.25155 75.368859 c 0,-3.090979 1.34619,-10.423737 -1.36837,-12.509866 -1.86235,-1.430995 -5.38848,-0.757288 -7.59926,-0.757288 h -18.99029 v -5.837547 c 5.4336,-0.04884 4.22006,-5.928299 4.22006,-9.817694 0,-1.82901 0.37903,-4.09637 -1.11146,-5.467664 -1.41925,-1.305645 -3.71444,-0.90057 -5.48238,-0.90057 H 122.00075 V 22.565585 c 0,-2.083023 0.58871,-5.179311 -0.89518,-6.863503 -1.91353,-2.171782 -7.53861,-1.09679 -10.18248,-1.09679 H 84.020203 c -2.557888,0 -7.796558,-1.01235 -9.654967,1.09679 -1.483882,1.684192 -0.895186,4.78048 -0.895186,6.863503 V 40.07823 m 44.57439,-21.492792 v 33.963917 h -12.66018 c -1.35252,5.31e-4 -3.89855,0.02808 -3.5496,2.118763 0.41199,2.467686 5.23578,1.59604 6.9784,1.59604 h 18.46277 c 1.20746,0 5.29011,-0.646379 5.90729,0.615069 0.86116,1.760813 0.15904,5.391504 0.15904,7.345223 v 17.777986 63.417004 h -12.92393 v -23.3502 c 0,-2.49927 0.83663,-6.90157 -0.66308,-9.02033 -1.95046,-2.75586 -6.15917,-1.85874 -9.09581,-1.85874 H 85.602726 c -2.859613,0 -7.825837,-1.01944 -9.760736,1.617 -1.630522,2.22172 -0.789417,6.62695 -0.789417,9.26207 v 23.3502 H 62.128636 v -24.94226 c 0,-1.7226 0.908634,-7.39033 -1.847065,-7.42801 -2.98491,-0.0406 -2.109243,5.62394 -2.109243,7.42801 v 24.94226 H 34.170731 V 77.756947 h 24.001597 v 12.205781 c 0,4.839066 -0.265867,9.763568 0.01136,14.593872 0.08573,1.49069 1.443787,3.68296 3.09357,2.26895 1.881616,-1.61303 0.851393,-7.402807 0.851393,-9.698559 v -27.59568 -9.287007 c 0,-0.936925 -0.343145,-2.77469 0.27114,-3.554803 0.491371,-0.624356 1.67616,-0.425083 2.366398,-0.425343 h 6.066338 17.143998 c 1.93464,0 5.373199,0.661231 7.092613,-0.31284 1.508136,-0.854407 1.059491,-2.843156 -0.502715,-3.286802 -2.700053,-0.767106 -6.423988,-0.115161 -9.227436,-0.115161 h -7.91261 V 18.585438 H 118.04446 M 91.40533,29.199162 c -1.659801,0 -3.362069,-0.211876 -4.742555,0.900654 -2.584524,2.082545 -2.808712,8.427133 -0.219971,10.626378 1.392618,1.183172 3.266588,0.944095 4.962526,0.944095 0,1.869867 -0.121061,3.750626 1.195335,5.256978 1.916437,2.192796 8.332505,2.160423 10.269505,-0.007 1.32749,-1.48513 1.19534,-3.394802 1.19534,-5.250348 1.69594,0 3.56991,0.239077 4.96253,-0.944085 2.58875,-2.199245 2.36455,-8.543812 -0.21998,-10.626384 -1.38048,-1.11253 -3.08275,-0.900654 -4.74255,-0.900654 0,-1.759145 0.11684,-3.61514 -1.11515,-5.029844 -2.22081,-2.55061 -8.577795,-2.423352 -10.643255,0.257754 -1.070577,1.389867 -0.901775,3.117012 -0.901775,4.77209 m 4.567692,-2.493322 c 0.440201,-0.217901 1.024152,-0.156818 1.498646,-0.159896 4.673972,-0.0303 0.910478,3.816907 3.488942,5.916169 1.46172,1.189958 3.29506,0.318571 4.91214,0.801548 1.14971,0.343433 1.27156,3.690392 0.4075,4.378984 -1.64081,1.307347 -4.28495,-0.730358 -5.71159,1.389764 -0.873806,1.298614 0.35344,4.629282 -1.070829,5.359763 -0.443641,0.227404 -1.016516,0.189987 -1.498656,0.195823 -4.706158,0.05837 -0.895704,-4.18684 -3.721303,-6.20706 -1.339863,-0.958021 -3.207772,-0.06087 -4.679781,-0.54053 -1.142851,-0.372435 -1.283161,-3.690631 -0.407504,-4.388377 1.571189,-1.251729 4.228774,0.608963 5.711589,-1.393661 0.946087,-1.277973 -0.391932,-4.628433 1.070846,-5.352527 M 73.47007,44.057975 v 8.490979 H 61.864902 c -0.957949,0 -3.279777,0.42455 -3.948921,-0.425344 -1.128076,-1.43285 -0.27114,-6.255198 -0.27114,-8.065635 H 73.47007 m 64.35593,0 c 0,1.810437 0.85693,6.632785 -0.27113,8.065635 -0.66915,0.849894 -2.99071,0.425344 -3.94893,0.425344 H 122.00077 V 44.057975 H 137.826 M 73.998634,65.193346 c -3.248923,1.038818 -2.112144,6.746081 -2.111087,9.379083 5.28e-4,1.171489 -0.08414,2.425234 0.699738,3.392676 1.711768,2.113197 6.887665,1.118427 9.322907,1.118156 0.94187,0 2.003744,0.113306 2.899976,-0.237212 2.97857,-1.164589 1.851551,-7.025223 1.847593,-9.580482 -0.002,-1.083927 0.05403,-2.253029 -0.663073,-3.148825 -0.698951,-0.872981 -1.712297,-1.064562 -2.765727,-1.092683 -2.72932,-0.07301 -6.622595,-0.664681 -9.230327,0.169287 m 18.46198,0 c -3.260527,1.035107 -2.111356,6.72512 -2.1103,9.379083 5.29e-4,1.146015 -0.115518,2.449915 0.663083,3.392676 1.656372,2.005728 9.648903,1.695546 11.996043,0.944888 3.24892,-1.038818 2.11214,-6.746081 2.11109,-9.379083 -5.3e-4,-1.171489 0.0841,-2.425234 -0.69974,-3.392676 -1.62895,-2.010773 -9.624901,-1.68652 -11.960176,-0.944888 m 18.462766,-0.02126 c -3.2608,0.947014 -2.11136,6.806053 -2.1103,9.400314 5.3e-4,1.158481 -0.10682,2.452302 0.66308,3.414168 0.69894,0.872981 1.71229,1.064552 2.76572,1.092682 2.72933,0.07301 6.62259,0.664682 9.23033,-0.169286 3.24892,-1.038818 2.11214,-6.746081 2.11108,-9.379083 -5.3e-4,-1.171489 0.0841,-2.425234 -0.69974,-3.392676 -1.64661,-2.032536 -9.58639,-1.655742 -11.96017,-0.966119 M 58.172348,66.08142 v 7.694949 H 34.170751 V 66.08142 h 24.001597 m 103.127752,0 v 7.694949 H 137.29849 V 66.08142 h 24.00161 m -78.598646,2.918774 v 6.102891 h -6.8576 v -6.102891 h 6.8576 m 18.462766,0 v 6.102891 h -6.857598 v -6.102891 h 6.857598 m 18.46277,0 v 6.102891 h -6.8576 v -6.102891 h 6.8576 m 41.67311,8.756321 V 145.41901 H 137.29847 V 77.756947 h 24.00161 m -87.56496,5.76909 c -0.843478,0.329819 -1.448533,1.060841 -1.696466,1.92613 -0.632738,2.207117 -0.93553,8.967268 0.5618,10.787783 0.656224,0.797624 1.734706,1.054473 2.715873,1.128506 2.675788,0.201659 7.289895,0.767376 9.747547,-0.414733 2.670514,-1.284524 1.594924,-6.931293 1.593867,-9.379083 -5.28e-4,-1.100374 0.0955,-2.248245 -0.641979,-3.155193 -1.704641,-2.097001 -6.939363,-1.090296 -9.380666,-1.090296 -0.924195,0 -2.02088,-0.146732 -2.899976,0.196886 m 18.462767,0 c -2.946391,1.152124 -1.848649,6.845587 -1.847593,9.355465 5.29e-4,1.161941 -0.09121,2.435323 0.699739,3.388966 0.72137,0.869791 1.929097,1.062696 2.992815,1.111516 2.669717,0.122061 7.031682,0.751191 9.483792,-0.428261 0.88833,-0.427199 1.38682,-1.255069 1.53742,-2.21482 0.37401,-2.380656 0.93739,-8.742261 -0.80841,-10.553218 -0.85007,-0.881736 -1.95836,-0.854678 -3.09145,-0.856534 -2.583995,-0.004 -6.547948,-0.748793 -8.966313,0.196886 m 18.462503,0 c -0.83716,0.326369 -1.49521,1.056599 -1.73286,1.92613 -0.60083,2.197569 -0.89756,9.030951 0.58527,10.818301 0.72137,0.869791 1.92909,1.062696 2.99281,1.111516 2.66866,0.122061 6.7281,0.679545 9.22743,-0.346265 2.92187,-1.199349 1.85129,-6.656403 1.85023,-9.195735 -5.3e-4,-1.167247 0.10023,-2.445934 -0.66307,-3.420537 -1.64661,-2.102848 -6.95704,-1.090296 -9.35957,-1.090296 -0.92499,0 -2.02009,-0.1462 -2.90024,0.196886 m -70.422105,3.404622 c -1.738803,0.51131 -2.222319,3.135025 -0.253366,3.712937 2.599816,0.763396 6.250231,0.115161 8.956026,0.115161 1.128335,0 2.614381,0.245175 3.678099,-0.196886 1.896808,-0.788598 1.163814,-3.138736 -0.51427,-3.631212 -2.777798,-0.815666 -9.089009,-0.817 -11.866489,0 m 103.127855,0 c -1.83705,0.53917 -2.35586,3.113263 -0.26007,3.712937 2.61986,0.749867 6.24121,0.115161 8.96263,0.115161 1.1133,0 2.61906,0.254994 3.6638,-0.196886 1.77137,-0.766574 1.09114,-3.163417 -0.50008,-3.631212 -2.77734,-0.817 -9.0887,-0.815666 -11.86628,0 m -60.664706,0.378638 v 6.102891 h -6.8576 v -6.102891 h 6.8576 m 18.462766,0 v 6.102891 h -6.857598 v -6.102891 h 6.857598 m 18.46277,0 v 6.102891 h -6.8576 v -6.102891 h 6.8576 M 39.738251,100.24265 c -1.359671,0.58826 -1.417779,2.78717 -0.01326,3.35792 2.535129,1.0298 7.011397,0.16 9.743439,0.16 1.01532,0 2.479025,0.25765 3.39359,-0.27278 1.429891,-0.82919 1.040641,-2.95432 -0.497172,-3.35764 -2.654924,-0.696525 -6.218711,-0.0843 -8.962755,-0.0843 -1.113383,0 -2.619176,-0.254998 -3.663854,0.19688 m 102.870371,0.0759 c -1.2982,0.75305 -1.13598,2.72853 0.24319,3.28203 2.61485,1.04917 7.19441,0.16 10.00814,0.16 0.98248,0 2.51119,0.27729 3.31432,-0.42535 1.19823,-1.0481 0.50088,-2.95538 -0.9445,-3.22896 -2.80265,-0.530416 -6.1117,-0.0605 -8.96368,-0.0605 -1.07954,0 -2.68659,-0.29029 -3.65747,0.27277 M 39.978379,113.24456 c -1.815653,0.72943 -1.559206,3.15811 0.259886,3.66811 2.635235,0.73925 6.233365,0.11515 8.966414,0.11515 1.140836,0 2.610612,0.22634 3.63619,-0.3866 1.602749,-0.95762 0.97684,-3.2088 -0.738966,-3.53304 -2.559064,-0.48346 -5.568975,-0.0605 -8.172301,-0.0605 -1.21303,0 -2.804495,-0.26375 -3.951223,0.19688 m 102.886601,0 c -1.72364,0.73607 -1.41557,3.0533 0.2474,3.60999 2.61433,0.87511 6.47304,0.17327 9.22005,0.17327 1.06108,0 2.44683,0.21971 3.41324,-0.31284 1.60916,-0.88651 1.15338,-3.08487 -0.51327,-3.55214 -2.56027,-0.71829 -6.04761,-0.11516 -8.70256,-0.11516 -1.11752,0 -2.6146,-0.25155 -3.66486,0.19688 m -46.975875,1.66052 v 30.51446 H 79.00886 v -30.51446 h 16.880245 m 20.572795,0 v 30.51446 H 99.581658 V 114.90511 H 116.4619 m -76.223635,11.29645 c -1.738803,0.51131 -2.222319,3.13503 -0.253366,3.71295 2.599816,0.76339 6.250231,0.11515 8.956026,0.11515 1.128335,0 2.614381,0.24519 3.678099,-0.19687 1.875654,-0.77985 1.184439,-3.19261 -0.51427,-3.66811 -2.789173,-0.78091 -9.08866,-0.78011 -11.866489,0.0369 m 102.867785,0.0448 c -1.55958,0.6233 -1.97974,2.86916 -0.25425,3.58639 2.54417,1.05765 6.99976,0.19687 9.74438,0.19687 1.01651,0 2.46082,0.24545 3.36866,-0.31284 1.69119,-1.04014 0.58527,-3.24779 -0.99514,-3.57602 -2.54417,-0.52856 -5.58103,-0.0913 -8.17611,-0.0913 -1.14153,0 -2.60694,-0.23509 -3.68754,0.19688 m -55.09448,1.13753 c -2.121106,1.21501 -1.736819,10.3919 1.782447,8.65364 2.13905,-1.05634 1.854192,-10.73685 -1.782447,-8.65364 m 17.66517,-0.0759 c -2.04065,0.86713 -2.0499,10.04907 1.53927,8.66344 2.4326,-0.93904 2.17386,-10.24118 -1.53927,-8.66344 z"
       id="path2687" />
  </g>
</svg>
