<?xml version="1.0" encoding="UTF-8" standalone="no"?>

<svg
   width="512"
   height="512"
   viewBox="0 0 135.46496 135.46496"
   version="1.1"
   id="svg602"
   xmlns="http://www.w3.org/2000/svg"
>
  <defs
     id="defs599" />
  <g
     id="layer1"
     transform="translate(-41.066888,-50.736678)">
    <path
       style="stroke:none;stroke-width:0.26458"
       d="m 62.280583,105.80618 c 0.03,1.44487 0.30768,2.8998 0.88317,4.23328 1.67489,3.88139 5.51808,6.2433 9.70003,6.34596 2.89001,0.0712 6.65101,-0.694 9.2603,0.82046 3.40065,1.97376 3.43954,5.24953 3.43954,8.70838 -1.69543,-1.69542 -3.98563,-5.52866 -6.34463,-3.16966 -0.4093,0.40957 -1.00884,0.94984 -1.00884,1.58218 0,1.47874 2.94001,3.52395 3.91393,4.49786 1.35624,1.35624 3.42816,4.38489 5.55618,4.38489 2.60638,0 5.71625,-4.54416 7.40824,-6.23695 0.64055,-0.64081 1.79544,-1.45942 2.0251,-2.38122 0.26934,-1.07975 -1.73909,-3.08817 -2.81884,-2.81883 -0.8284,0.20637 -1.54118,1.18638 -2.11664,1.76051 l -2.38122,2.38122 c 0,-5.66095 -1.15304,-11.40683 -7.40824,-13.25201 -5.56914,-1.64305 -15.11046,1.89862 -15.8748,-6.85607 h 11.37694 c 1.39037,0 3.48267,0.37677 4.6582,-0.53154 1.81131,-1.39963 0.89798,-6.409191 0.89798,-8.464181 V 76.437795 c 0,-2.39604 0.71251,-6.14175 -0.70193,-8.201985 -2.35053,-3.424247 -6.15254,-6.325261 -9.08753,-9.2603 -1.2303,-1.230245 -2.56775,-3.09601 -4.23328,-3.732298 -1.94824,-0.744238 -4.81562,-0.236403 -6.87908,-0.236403 -4.83105,0 -9.72755,-0.233941 -14.5519,0.01061 -3.0672,0.155494 -2.6458,2.956629 -2.6458,5.280991 v 16.933125 20.901824 c 0,1.80576 -0.76644,5.955171 0.86742,7.181231 1.16897,0.87735 3.31641,0.49159 4.68876,0.49159 h 11.37694 m 44.449417,0 v 19.31434 c 0,1.53536 0.71702,5.60143 -0.61329,6.63197 -2.64422,2.04811 -8.333987,2.61352 -11.557367,3.53346 -8.83353,2.52145 -17.64061,5.13735 -26.458,7.71383 l -8.99572,2.60559 c -1.454,0.42544 -2.95134,0.80168 -3.14618,2.53388 -0.48338,4.29731 -0.0288,8.90259 -0.0288,13.22874 0,1.43402 -0.41949,3.7319 0.49159,4.95346 0.993,1.33137 3.81869,1.60653 5.32918,2.03701 4.76992,1.35994 9.51905,2.79237 14.28732,4.15919 7.50772,2.1521 14.98449,4.41452 22.4893,6.5772 3.119117,0.89904 7.074057,2.85984 10.318597,2.8609 2.53521,8e-4 5.50777,-1.44566 7.9374,-2.14415 5.82791,-1.67506 11.63068,-3.4406 17.46229,-5.10322 6.80182,-1.93911 13.57639,-3.97347 20.37266,-5.93215 1.86343,-0.5371 5.99591,-0.97895 6.8767,-2.93816 0.60245,-1.34037 0.26696,-3.29694 0.26696,-4.73466 v -9.78946 c 0,-1.36868 0.39078,-3.55305 -0.66516,-4.62751 -2.0161,-2.05155 -7.47015,-2.48229 -10.18262,-3.31651 -9.12775,-2.80666 -18.33355,-5.42124 -27.51632,-8.04217 l -8.46657,-2.45742 c -1.06043,-0.3048 -2.75401,-0.48656 -3.54457,-1.32105 -1.13082,-1.19431 -0.42413,-5.12571 -0.42413,-6.69335 v -19.04976 h 11.37694 c 1.39037,0 3.48267,0.37677 4.6582,-0.53154 1.81132,-1.39963 0.89799,-6.409191 0.89799,-8.464181 V 76.437795 c 0,-2.39601 0.71251,-6.14175 -0.70194,-8.201985 -2.35052,-3.424247 -6.15254,-6.325261 -9.08753,-9.2603 -1.23029,-1.230245 -2.56774,-3.09601 -4.23328,-3.732298 -1.94836,-0.744238 -4.81562,-0.236403 -6.87908,-0.236403 -4.83096,0 -9.727527,-0.233941 -14.551877,0.01061 -3.06728,0.155494 -2.6458,2.956629 -2.6458,5.280991 v 17.197705 20.637244 c 0,1.80576 -0.76649,5.955171 0.86755,7.181231 1.16892,0.87735 3.31625,0.49159 4.68863,0.49159 h 11.376917 m 44.44945,0 c -0.7395,8.4708 -9.37936,5.28658 -14.81648,6.58778 -6.88861,1.6486 -8.46656,7.25637 -8.46656,13.5203 -1.69543,-1.69542 -3.98564,-5.52866 -6.34463,-3.16966 -0.40931,0.4093 -1.00885,0.94984 -1.00885,1.58218 0,1.47874 2.94002,3.52395 3.91394,4.49786 1.35623,1.35624 3.42816,4.38489 5.55618,4.38489 2.60637,0 5.71625,-4.54416 7.40824,-6.23695 0.64054,-0.64081 1.79544,-1.45942 2.02509,-2.38122 0.26934,-1.07975 -1.73908,-3.08817 -2.81883,-2.81883 -0.8284,0.20637 -1.54118,1.18638 -2.11664,1.76051 l -2.38122,2.38122 c 0,-3.53002 0.036,-6.66344 3.43954,-8.72981 2.15421,-1.30782 5.26382,-0.79507 7.67282,-0.79507 4.79921,0 9.25024,-1.62531 11.28751,-6.34992 0.56779,-1.31708 0.82178,-2.80798 0.88317,-4.23328 h 11.37694 c 1.39037,0 3.48267,0.37677 4.65819,-0.53154 1.81132,-1.39963 0.89799,-6.409191 0.89799,-8.464181 V 76.437795 c 0,-2.39601 0.71251,-6.14175 -0.70193,-8.201985 -2.35053,-3.424221 -6.15255,-6.325261 -9.08753,-9.2603 -1.2303,-1.230218 -2.56775,-3.09601 -4.23328,-3.732298 -1.94837,-0.744238 -4.81562,-0.236403 -6.87908,-0.236403 -4.83097,0 -9.72755,-0.233941 -14.5519,0.01061 -3.06728,0.155494 -2.6458,2.956602 -2.6458,5.280991 v 16.933125 20.901824 c 0,1.80576 -0.76649,5.955171 0.86755,7.181231 1.16892,0.87735 3.31625,0.49159 4.68863,0.49159 h 11.37695 M 66.513863,59.24009 v 8.20198 l 0.66513,3.630435 3.56815,0.86743 h 8.46656 V 101.5729 H 49.580743 V 59.24009 h 16.93312 m 44.449417,0 v 8.46656 l 0.86756,3.568155 3.6303,0.66513 h 8.20199 V 101.5729 H 94.030183 V 59.24009 h 16.933097 m 44.44945,0 v 8.46656 l 0.86756,3.568155 3.6303,0.66513 h 8.20198 V 101.5729 H 138.47961 V 59.24009 h 16.93312 m -84.401007,3.17496 5.02702,5.2916 h -5.2916 l 0.26458,-5.2916 m 44.449417,0 5.02702,5.2916 h -5.2916 l 0.26458,-5.2916 m 44.44945,0 5.02702,5.2916 h -5.2916 l 0.26458,-5.2916 m -106.096567,5.2916 v 4.233285 h 8.46656 V 67.70665 h -8.46656 m 44.44944,0 v 4.233285 H 106.73 V 67.70665 h -8.466537 m 44.449427,0 v 4.233285 h 8.46656 V 67.70665 h -8.46656 m -88.898867,8.466565 v 4.23328 h 21.1664 v -4.23328 h -21.1664 m 44.44944,0 v 4.23328 h 21.166377 v -4.23328 H 98.263463 m 44.449427,0 v 4.23328 h 21.1664 v -4.23328 h -21.1664 m -88.898867,8.46656 v 4.23328 h 21.1664 v -4.23328 h -21.1664 m 44.44944,0 v 4.23328 h 21.166377 v -4.23328 H 98.263463 m 44.449427,0 v 4.23328 h 21.1664 v -4.23328 h -21.1664 m -88.898867,8.46656 v 4.233284 h 21.1664 v -4.233284 h -21.1664 m 44.44944,0 v 4.233284 h 4.233257 v -4.233284 h -4.233257 m 8.466537,0 v 4.233284 h 4.23328 V 93.106335 H 106.73 m 8.46656,0 v 4.233284 h 4.23328 v -4.233284 h -4.23328 m 27.51633,0 v 4.233284 h 21.1664 v -4.233284 h -21.1664 M 106.73,136.23289 v 10.84778 c -1.49196,-1.05092 -2.61669,-2.99452 -4.23328,-3.80043 -1.09139,-0.54424 -3.156458,1.33189 -2.855628,2.47753 0.239982,0.91412 1.422138,1.74146 2.061888,2.38122 1.58034,1.58033 4.73096,6.14116 7.14366,6.14116 2.41271,0 5.56333,-4.56083 7.14366,-6.14116 0.63976,-0.63976 1.8219,-1.4671 2.06188,-2.38122 0.30082,-1.14564 -1.76422,-3.02177 -2.85562,-2.47753 -1.61658,0.80591 -2.74131,2.74951 -4.23328,3.80043 v -10.84778 c 8.83486,1.19061 17.87979,5.11565 26.45801,7.56143 4.36662,1.24485 10.42709,1.9862 14.28732,4.34467 -2.78973,1.70442 -6.9193,2.16056 -10.05404,3.10087 -7.03942,2.11162 -14.09815,4.1846 -21.16641,6.19647 -3.4144,0.97207 -8.36258,3.51732 -11.9061,3.21756 -3.29137,-0.27861 -6.88278,-1.95128 -10.054017,-2.87784 -7.22859,-2.11188 -14.45374,-4.24439 -21.69556,-6.30891 -3.54537,-1.01096 -7.20266,-2.52515 -10.84778,-3.06357 l 3.17496,-1.35995 7.40824,-2.15659 20.10808,-5.85515 10.054017,-2.79899 m 0,40.74532 -11.641497,-3.25195 -22.75388,-6.6489 -8.46656,-2.45742 -3.43219,-1.32105 -0.27193,-3.51838 v -8.73114 l 11.64152,3.25195 22.75388,6.6145 8.731117,2.56219 3.16756,1.2139 0.27198,3.55516 v 8.73114 m 50.79937,-25.92884 v 8.73114 l -0.27199,3.55516 -3.16755,1.21389 -8.20198,2.38122 -23.01846,6.72007 -11.90611,3.32736 v -8.73114 l 0.27199,-3.51839 3.16755,-1.24405 8.20199,-2.38784 20.63724,-6.00464 z"
       id="path2117" />
  </g>
</svg>
