<?xml version="1.0" encoding="UTF-8" standalone="no"?>

<svg
   width="512"
   height="512"
   viewBox="0 0 135.46667 135.46667"
   version="1.1"
   id="svg602"
   xmlns="http://www.w3.org/2000/svg"
>
  <defs
     id="defs599" />
  <g
     id="layer1"
     transform="translate(-58.401166,-57.813871)">
    <path
       style="stroke:none;stroke-width:0.264583"
       d="m 129.8669,85.454541 h -26.19374 v -6.614583 h 21.43124 v -3.96875 h -18.78541 c -1.31128,0 -5.47132,-0.675772 -6.342587,0.424233 -0.513297,0.647912 -0.27199,1.980751 -0.27199,2.750767 v 7.408333 H 89.12107 V 96.037874 H 78.53774 v 55.562486 16.40417 l 0.15965,7.14375 4.60285,5.02708 8.73125,8.73125 4.497921,4.22592 5.027079,0.27199 h 11.64167 41.53957 v -10.58333 h 10.58334 V 172.23786 H 175.9044 V 98.154541 h -3.96875 v 70.114569 h -6.61458 v -44.97916 c 0,-6.95881 -1.04167,-14.82883 0.0392,-21.69477 0.38048,-2.416173 4.84505,-5.031843 6.30423,-7.144806 4.3651,-6.321689 5.38692,-14.507183 2.63525,-21.695832 -6.36429,-16.626794 -28.72978,-19.605174 -39.81185,-6.085416 -4.36933,5.330189 -5.46285,12.12416 -4.62095,18.785415 m 20.6375,-23.472165 c 20.02949,-2.459834 29.08644,24.753807 12.43542,35.458319 -2.21086,1.421077 -4.79663,2.414588 -7.40834,2.754045 -16.58752,2.15556 -28.25035,-16.591171 -18.50945,-30.350615 1.42822,-2.017262 3.4335,-3.882945 5.54487,-5.168979 2.39527,-1.459044 5.1599,-2.351669 7.9375,-2.69277 m -7.67292,11.830499 v 0.264584 l 4.7625,4.762499 1.68513,2.116667 -1.42081,2.116666 -5.02682,5.027084 v 0.264583 l 2.64584,2.645833 h 0.26458 l 4.7625,-4.7625 c 0.54875,-0.547423 1.28931,-1.576387 2.11667,-1.685131 2.50428,-0.328798 4.50982,5.236369 6.87916,5.826919 1.17052,0.291835 2.97789,-1.702594 2.44687,-2.818871 -1.04537,-2.197365 -4.44447,-4.96144 -6.41562,-6.35 v -0.264583 c 1.97115,-1.38856 5.37025,-4.152715 6.41562,-6.35 0.50721,-1.066006 -1.09061,-2.855701 -2.18228,-2.855701 -0.83873,0 -1.58142,1.00166 -2.11667,1.532996 -1.61793,1.606021 -3.44805,3.160792 -4.7625,5.026872 l -5.02708,-5.026872 -2.38125,-1.608534 -2.64584,2.137489 m -11.64166,15.610416 3.70416,6.614583 H 93.08982 v -6.614583 h 38.1 m 19.57916,14.816659 v 38.36458 h 3.96875 v -38.36458 l 6.61459,-1.5875 v 76.19999 h -6.61459 v -22.75416 c 0,-2.08624 0.89773,-6.89452 -0.27199,-8.64712 -0.66357,-0.9943 -2.66991,-0.6133 -3.69676,-0.6133 v 42.59792 H 99.439816 V 172.50244 H 82.50649 v -72.49582 h 37.57083 l 18.52083,0.0286 4.49792,2.12381 7.67291,2.08095 m -59.53124,25.39998 h 20.90208 V 108.73787 H 97.058568 l -5.396698,0.27199 -0.42413,5.28425 v 15.34583 m 16.93333,-16.93332 v 13.22916 h -8.995834 l -3.544616,-0.27199 -0.42413,-3.43218 v -9.52499 h 12.96458 m 8.46667,4.76249 v 3.70417 h 25.39999 v -3.70417 h -25.39999 m 0,8.46667 v 3.70416 h 25.39999 v -3.70416 h -25.39999 m -25.4,8.46666 v 3.70417 h 50.79999 v -3.70417 H 91.23774 m 0,8.46667 v 3.96875 h 50.79999 v -3.96875 H 91.23774 m 0,8.46667 v 3.96875 h 50.79999 v -3.96875 H 91.23774 m 0,8.46666 v 3.96875 h 33.86666 v -3.96875 H 91.23774 m 29.63333,12.7 v 3.96875 h 4.23333 v -3.96875 h -4.23333 m 8.46666,0 v 3.96875 h 4.23334 v -3.96875 h -4.23334 m 8.46667,0 v 3.96875 h 4.23333 v -3.96875 h -4.23333 m -42.33333,3.96875 v 10.05417 c -3.48906,-2.45772 -7.59645,-6.56511 -10.05416,-10.05417 z"
       id="path688" />
  </g>
</svg>
