<?xml version="1.0" encoding="UTF-8" standalone="no"?>

<svg
   width="512"
   height="512"
   viewBox="0 0 135.46496 135.46496"
   version="1.1"
   id="svg602"
   xmlns="http://www.w3.org/2000/svg"
>
  <defs
     id="defs599" />
  <g
     id="layer1"
     transform="translate(-48.420211,-53.235093)">
    <path
       style="stroke:none;stroke-width:0.26458"
       d="m 66.287273,100.619 c -1.52493,0 -3.01975,-0.0614 -4.49786,0.38099 -7.67795,2.29761 -6.08534,11.72195 -6.08534,17.87502 0,2.3172 -1.15664,9.70454 3.17393,8.57557 2.42474,-0.63208 2.11767,-3.73428 2.11767,-5.66518 v -10.58321 c 7.4e-4,-1.9272 0.18457,-3.91181 2.12053,-4.9061 1.66088,-0.85301 4.26292,-0.3855 6.08145,-0.3855 h 14.02274 50.005617 15.08107 c 2.24707,0 4.48886,-0.33231 5.86229,1.85312 1.24618,1.98303 0.75221,4.91034 0.75221,7.1426 v 16.13939 c 0,1.78168 0.76304,5.92394 -0.6133,7.2397 -3.24746,3.10405 -9.18066,5.08629 -13.14487,7.23044 -1.82216,0.98583 -4.02558,1.83698 -5.02702,3.78985 -0.84295,1.64383 -0.52995,3.76391 -0.52916,5.55221 0.003,6.78145 3.02812,12.44875 5.55618,18.5206 H 87.718263 71.314293 c -2.35616,0 -5.39613,0.5109 -7.6726,-0.11483 -2.4575,-0.67547 -2.64588,-3.35805 -2.64602,-5.44135 v -15.8748 c 0,-2.21216 -0.0153,-7.06985 -3.70004,-5.62444 -2.64273,1.03688 -1.59156,6.53168 -1.59156,8.7994 0,6.94496 -2.63828,19.81783 5.55618,23.03777 2.477,0.97339 5.58672,0.50985 8.20198,0.50985 h 16.13939 55.561787 c 1.04483,0 2.46324,-0.23945 3.41573,0.27199 1.1168,0.59954 1.8809,1.98144 2.71459,2.90297 2.47912,2.74052 7.4773,7.57334 11.59655,6.40575 2.69104,-0.76252 5.08628,-2.82413 7.14366,-4.62936 6.55576,-5.75303 11.16342,-14.99481 12.85859,-23.47195 0.62361,-3.11781 1.72426,-8.54223 -0.22754,-11.35313 -2.49023,-3.58638 -9.34709,-5.91998 -13.16021,-7.89295 -1.39699,-0.72283 -4.50527,-1.73803 -5.13206,-3.271 -0.79665,-1.94864 -0.15954,-5.28473 -0.15954,-7.38046 v -17.99145 c 0,-4.06897 -0.59531,-8.34379 -4.49786,-10.5951 -1.93594,-1.11679 -4.1928,-1.04641 -6.34992,-1.04641 0,-8.693575 -0.16352,-16.953495 -4.31795,-24.870525 -13.19434,-25.14361 -48.072327,-30.52272 -67.623997,-9.52488 -9.12786,9.8028 -11.13618,21.5384 -11.13618,34.395405 m 78.051097,0 h -7.40824 c 0,-9.691035 -1.27818,-18.555265 -8.22579,-25.927835 -13.02951,-13.82695 -36.735867,-10.913 -45.930557,5.81975 -3.5541,6.46766 -3.78667,12.91706 -3.78667,20.108085 h -7.40824 c 0,-8.167585 0.31983,-15.913695 4.31493,-23.283045 12.04829,-22.22467 42.762847,-25.10547 59.403607,-6.6145 7.60932,8.45527 9.04096,19.00611 9.04096,29.897545 m -12.69984,0 H 84.278723 c 0,-5.854365 -0.21617,-11.591255 2.61669,-16.933125 7.34739,-13.85565 27.075257,-17.18923 38.052947,-5.5325 6.03904,6.4125 6.69017,14.10807 6.69017,22.465625 m -51.328517,38.89326 v 0.26458 c -5.65984,3.01303 -10.17328,8.79358 -10.58952,15.34564 -0.1874,2.95006 0.21584,5.66889 2.91692,7.41644 2.38394,1.54224 5.49776,1.05012 8.20176,1.05012 h 15.61023 c 2.42778,0 5.360647,0.44317 7.672817,-0.41248 3.62421,-1.34142 4.61136,-5.08549 4.15681,-8.58324 -0.73421,-5.65011 -4.79551,-12.73212 -10.506727,-14.5519 1.93143,-2.74423 3.867357,-4.77435 4.548657,-8.20198 0.48471,-2.43864 0.22727,-5.08391 -0.64055,-7.40824 -0.76067,-2.0378 -2.039907,-3.86975 -3.667347,-5.31171 -5.3842,-4.7717 -14.01877,-4.48913 -18.97991,0.82416 -4.94167,5.2924 -4.91505,15.20409 1.27686,19.56861 m 7.40825,-18.44097 c 10.98218,-1.6179 12.966267,15.1488 1.85206,16.4717 -10.20221,1.21442 -11.96061,-14.98264 -1.85206,-16.4717 m 25.929887,2.73894 c -2.23305,0.70986 -2.53388,3.98616 -0.26167,4.88229 1.7248,0.68024 4.25207,0.23654 6.08137,0.23654 h 13.49358 c 1.79491,0 4.7807,0.56567 6.33828,-0.4609 2.07299,-1.36656 1.34619,-4.33356 -1.04668,-4.77038 -5.20084,-0.94931 -11.37588,-0.0603 -16.66854,-0.0603 -2.40715,0 -5.63238,-0.55986 -7.93634,0.17277 m -56.352517,10.60701 c -3.00992,1.17077 -1.244,6.07423 1.84391,4.827 3.08371,-1.24565 1.27128,-6.03851 -1.84391,-4.827 m 56.352517,3.65914 c -2.46245,0.71622 -2.38545,4.20894 0,4.96723 3.74116,1.18955 9.30211,0.17277 13.22794,0.17277 1.53166,0 3.61893,0.35956 5.01538,-0.3855 2.17511,-1.16018 1.47874,-4.27958 -0.78236,-4.80186 -3.45727,-0.7985 -7.82813,-0.10424 -11.37668,-0.10424 -1.88936,0 -4.25921,-0.37941 -6.08428,0.1516 m 43.91923,4.83203 c 2.16056,0 5.5448,2.68972 7.40824,3.74751 2.34021,1.32845 7.53259,2.84714 8.98831,5.1302 0.84031,1.31788 0.26908,4.26318 0.0286,5.71758 -0.88766,5.3715 -2.94557,10.4853 -5.85595,15.08106 -1.96477,3.10246 -4.27508,6.00385 -7.12963,8.34353 -0.86862,0.71198 -2.2447,1.97562 -3.43954,1.97562 -1.2893,0 -2.77598,-1.42106 -3.70412,-2.19258 -2.83815,-2.35952 -5.1818,-5.23365 -7.08969,-8.39115 -2.77306,-4.58941 -4.81403,-9.50477 -5.67524,-14.81648 -0.22966,-1.4163 -0.80803,-4.47696 0.0526,-5.71758 1.63643,-2.35873 7.0037,-4.11607 9.53732,-5.45273 1.78618,-0.94243 4.85319,-3.42498 6.87908,-3.42498 m -70.642857,0.12276 c 5.63687,-0.81226 11.06103,2.07854 14.102107,6.79971 1.00646,1.56234 3.78984,7.57519 0.70934,8.38242 -1.896507,0.49688 -4.387797,0.0841 -6.344887,0.0841 h -13.49357 c -1.59726,0 -5.21989,0.66886 -6.47752,-0.4609 -1.2534,-1.12605 -0.18084,-4.34097 0.35932,-5.62444 1.92276,-4.56904 6.10947,-8.45519 11.14523,-9.18093 M 155.9799,163.8536 c -1.31735,-0.92788 -2.37831,-2.52489 -3.9687,-3.00113 -1.68802,-0.50588 -3.56231,0.94058 -3.36837,2.73655 0.16139,1.4954 1.5851,2.47382 2.57489,3.44351 1.26945,1.24405 2.77756,3.23131 4.76218,3.13051 1.46074,-0.0741 2.48255,-1.38534 3.43954,-2.34074 2.38042,-2.37646 7.05926,-5.83108 8.22923,-8.99572 0.85565,-2.31481 -1.63828,-4.17349 -3.73137,-3.1276 -2.62861,1.31337 -6.59466,5.56597 -7.9374,8.15462 z"
       id="path2420" />
  </g>
</svg>
