<?xml version="1.0" encoding="UTF-8" standalone="no"?>

<svg
   width="512"
   height="512"
   viewBox="0 0 135.46666 135.46664"
   version="1.1"
   id="svg5"
   xmlns="http://www.w3.org/2000/svg"
>
  <defs
     id="defs2" />
  <g
     id="layer1"
     transform="translate(-48.780781,-43.862593)">
    <path
       style="stroke:none;stroke-width:0.264583"
       d="m 110.01014,145.35852 c 4.6826,1.80631 9.40435,3.54938 14.02292,5.51656 2.38945,1.01785 5.2996,2.37913 7.93644,1.36392 5.35596,-2.06163 1.63116,-7.72133 2.6506,-11.3784 0.50112,-1.79758 3.16997,-3.50599 2.44157,-5.55519 -0.69135,-1.94548 -3.86503,-3.41392 -5.62028,-4.23439 v -0.52917 c 2.1463,-0.50853 8.56668,-1.93331 8.35184,-4.76277 -0.12515,-1.64941 -2.9165,-4.49156 -2.05052,-5.99889 1.60946,-2.80115 7.85019,-2.96228 6.13542,-7.49459 -1.4015,-3.70444 -4.6855,-7.29087 -6.88049,-10.58334 -0.77814,-1.16734 -2.3323,-2.797707 -2.49026,-4.233336 -0.28998,-2.636308 4.03834,-4.357422 3.97431,-7.143749 -0.0847,-3.683794 -1.56104,-7.733242 -2.9128,-11.1125 -4.35821,-10.895647 -12.4534,-19.827794 -23.70666,-23.721456 -17.563311,-6.076923 -42.796146,-2.287005 -52.305853,15.25479 -6.657419,12.28037 -6.037474,27.669594 -3.719671,41.010421 0.869633,5.00539 1.875605,9.93325 5.097912,14.02292 2.563574,3.25358 7.078371,5.06651 7.721097,9.525 1.071933,7.43558 0.0839,15.97051 -2.48576,23.01875 -0.778722,2.13598 -5.189246,6.90192 -4.041854,8.96699 1.187846,2.1381 7.398755,1.08717 9.517459,1.08717 h 24.606248 c 2.064809,0 7.066762,0.90594 8.616422,-0.64399 1.28561,-1.28561 0.79216,-4.78076 1.02076,-6.49976 0.74772,-5.62239 2.58234,-10.49258 4.12115,-15.87499 m 25.13542,-20.10834 c -2.60403,0.8808 -5.26733,1.91797 -7.67265,3.25755 -0.83979,0.46779 -2.04682,1.16973 -1.94178,2.2995 0.28549,3.0726 5.66764,3.09589 6.63734,5.61101 0.47466,1.23138 -1.40838,2.73474 -1.67058,3.91319 -0.40534,1.82113 2.24367,7.2517 -0.17516,8.30607 -1.82324,0.79454 -5.1472,-1.3933 -6.81884,-2.0619 -4.83288,-1.93305 -9.69803,-3.78487 -14.55208,-5.66499 -1.91241,-0.74084 -4.92469,-1.36102 -6.48256,-2.69452 -2.13518,-1.82774 -1.397,-7.35595 -4.369327,-8.29681 -4.115329,-1.30227 -0.795338,6.01875 -0.345017,7.23715 1.550461,4.19312 4.213224,5.58668 8.551074,6.61459 -0.33999,2.26986 -1.53459,4.41272 -2.19049,6.61458 -1.32212,4.43706 -2.29473,9.3845 -2.30743,14.02291 H 67.67681 c 3.526737,-9.69142 7.291149,-20.66025 4.517919,-31.22083 -1.454415,-5.53852 -7.499376,-7.70546 -10.002705,-12.7 -1.935506,-3.86159 -2.443718,-8.46799 -3.05353,-12.7 -1.423749,-9.880606 -1.822502,-20.60893 1.577684,-30.162505 9.648269,-27.109207 52.536432,-27.164478 67.194612,-4.762499 2.45825,3.756818 4.26429,7.861299 5.49408,12.170832 0.41089,1.439863 1.27767,3.517371 0.98583,5.027083 -0.51779,2.676525 -5.24563,4.964906 -4.34684,7.9375 1.18454,3.917949 5.15462,7.901779 7.33055,11.377089 0.61595,0.98346 2.34765,2.72362 2.23917,3.94123 -0.1995,2.23653 -5.50281,3.06785 -6.53336,5.07921 -0.9734,1.9005 1.72456,4.94215 2.06534,6.85456 m 32.28419,-15.40245 c -1.31471,0.43894 -1.52638,1.896 -0.86704,2.96703 1.5494,2.51699 3.84546,4.52438 5.35596,7.14376 4.32409,7.49776 4.29922,17.46038 0.4617,25.13541 -1.47611,2.95196 -3.73909,5.05169 -5.63457,7.67292 -0.94959,1.31286 -0.48074,3.46445 1.47294,3.28533 2.853,-0.26194 5.73458,-5.52027 6.93658,-7.78325 4.76012,-8.95985 5.16705,-19.3032 1.03743,-28.575 -1.34593,-3.0218 -3.25173,-5.86343 -5.59408,-8.20103 -0.8009,-0.7993 -1.88807,-2.07274 -3.16892,-1.64517 m -7.3742,7.20804 c -0.91705,0.53711 -0.95171,1.77297 -0.52096,2.63816 1.22713,2.46486 3.47318,4.21958 4.60189,6.87917 1.97776,4.66037 1.59438,10.4267 -0.91149,14.81667 -1.01891,1.78514 -3.13795,3.39672 -3.80179,5.29166 -0.48234,1.37663 0.73554,2.8112 2.18069,2.38443 2.02909,-0.59902 3.62823,-3.32502 4.64264,-5.03026 3.5687,-5.9989 3.9624,-13.44004 1.2118,-19.84375 -0.88239,-2.05423 -4.37383,-8.9109 -7.40278,-7.13608 m -6.6249,6.80429 c -1.07659,0.44609 -1.24275,1.75842 -0.77523,2.71304 1.50283,3.06811 3.85709,4.91516 2.57069,8.73125 -0.59161,1.75524 -2.82496,3.17129 -2.82496,5.02602 0,1.26947 1.12104,2.02618 2.32358,1.73435 5.32077,-1.29064 5.47422,-10.36505 3.67241,-14.1687 -0.7784,-1.6428 -2.67467,-4.98555 -4.96649,-4.03596 z"
       id="path85" />
  </g>
</svg>
