<?xml version="1.0" encoding="UTF-8" standalone="no"?>

<svg
   width="511.99985"
   height="512"
   viewBox="0 0 135.46492 135.46496"
   version="1.1"
   id="svg602"
   xmlns="http://www.w3.org/2000/svg"
>
  <defs
     id="defs599" />
  <g
     id="layer1"
     transform="translate(-31.472791,-15.465118)">
    <path
       style="stroke:none;stroke-width:0.268231"
       d="m 85.643142,122.79984 c -0.0037,5.63104 -2.233262,12.30483 -8.162118,13.65883 -3.271422,0.74681 -6.829053,-0.38147 -10.005166,0.95559 -3.789328,1.59528 -5.181895,6.75467 -2.917567,10.25183 2.958113,4.56889 10.195273,3.00612 14.765791,3.00612 h 41.073868 c 4.86146,0 13.27766,1.59993 14.61835,-5.19191 0.18773,-0.95149 0.19326,-2.04315 0.0774,-3.00584 -0.9497,-7.88871 -10.16895,-4.58419 -14.95905,-6.31255 -5.23745,-1.88986 -7.10553,-8.13381 -7.10894,-13.36207 h 38.17763 c 5.10238,0 11.36509,0.8512 14.2708,-4.6454 1.49157,-2.82194 1.26355,-5.9103 1.26355,-9.01753 V 94.380946 37.543164 c 0,-7.223404 2.22431,-21.324995 -8.16211,-21.849726 -10.04046,-0.507246 -20.2252,-0.01096 -30.27882,-0.01096 H 68.002439 45.885744 c -3.763737,0 -7.649036,-0.527939 -10.784687,2.098762 -5.406109,4.528633 -3.1699,16.371114 -3.1699,22.767773 v 58.477328 c 0,6.366109 -2.017443,16.874529 3.160552,21.530039 3.799599,3.41628 10.097462,2.24346 14.743446,2.24346 H 85.643142 M 162.2617,99.572852 h -4.476 V 45.740923 31.80473 c 0,-1.750549 0.43181,-4.241629 -0.66191,-5.722417 -1.32385,-1.792413 -4.52103,-1.109048 -6.44702,-1.109048 H 132.24619 64.053028 47.465507 c -1.835921,0 -4.655379,-0.603847 -5.92046,1.109048 -1.093643,1.480788 -0.661895,3.971868 -0.661895,5.722417 V 45.740923 99.572852 H 36.407159 V 43.008333 28.525626 c 0,-2.13803 -0.376219,-4.715814 0.960727,-6.532492 1.740061,-2.364424 5.203091,-1.938524 7.727972,-1.938524 h 19.483761 71.879261 17.37741 c 2.3757,0 5.50943,-0.349798 7.2685,1.691006 1.46312,1.697319 1.15691,4.134649 1.15691,6.233493 v 14.209444 57.384299 m -8.95199,-69.954191 v 69.68094 H 45.359153 V 29.618661 H 153.30971 m -37.91435,53.558687 c 0.19589,2.328983 1.51842,9.977763 4.7393,9.168101 1.61662,-0.406336 2.61003,-3.141114 4.2127,-3.141114 2.79328,0 3.90439,5.571745 7.10894,5.408062 2.53052,-0.129252 5.76061,-4.666982 7.34354,-6.5164 0.65849,-0.769489 1.21431,-1.657579 0.96365,-2.73258 -0.53844,-2.307943 -4.13108,-5.237553 -5.93754,-6.558209 v -0.27326 c 0.67403,-0.492956 1.25802,-1.032911 1.84253,-1.640915 4.76667,-4.95828 -3.149,-7.017828 -7.10841,-7.376614 V 44.647883 c 0,-2.416969 0.91679,-7.465916 -0.52896,-9.470022 -0.88599,-1.228052 -2.65322,-0.913804 -3.94704,-0.913804 H 113.5523 75.111385 65.6328 c -1.197732,0 -2.902033,-0.303645 -3.835144,0.665029 -1.629526,1.691007 -0.640858,7.449932 -0.640858,9.718797 v 27.599116 c 0,2.484466 -1.152698,9.23341 1.328054,10.570188 1.316729,0.70938 3.290651,0.360161 4.72771,0.360161 h 10.268462 37.914336 m 8.68871,-44.267894 c 0,1.405475 0.70168,5.899924 -0.42206,6.82381 -0.85492,0.702824 -3.01946,0.280909 -4.05394,0.280909 H 108.54972 65.6328 v -7.104719 h 58.45127 m 0,11.476858 V 67.87487 c -2.92651,-0.69627 -5.82248,-1.711966 -8.68871,-2.639405 -1.25249,-0.405243 -2.76484,-1.009151 -3.88938,0.02546 -1.20114,1.105055 -0.73169,2.616447 -0.3299,3.980278 0.90467,3.069241 1.94284,6.164992 2.63952,9.290798 H 65.6328 v -28.14564 h 58.45127 m -52.630365,9.79851 c -0.947339,0.445687 -1.241169,1.504557 -1.320423,2.498128 -0.187466,2.358767 -0.992092,8.840194 0.838856,10.516634 1.205093,1.10369 3.448355,0.686964 4.929123,0.686964 h 10.531767 c 1.512889,0 3.578165,0.360432 4.95282,-0.429826 2.186661,-1.256722 1.114261,-7.953469 1.102673,-10.227252 -0.0047,-1.014612 0.01315,-2.126222 -0.84965,-2.803088 -1.18982,-0.933182 -3.534979,-0.476022 -4.942548,-0.476022 H 76.164557 c -1.397568,0 -3.413342,-0.376001 -4.710852,0.234462 m 16.559085,4.410938 v 4.645399 H 74.584794 V 64.595809 H 88.01279 m 28.43575,5.738429 14.48117,4.645399 c -0.76223,1.127742 -2.2559,2.303025 -2.1361,3.82562 0.16113,2.043155 2.70877,3.846659 3.97784,5.191909 0.52159,0.552804 1.43917,1.301262 1.22669,2.18607 -0.27277,1.135391 -1.77276,2.207661 -2.54184,3.005849 h -0.26329 c -1.61242,-1.673439 -4.53446,-6.107062 -7.10894,-5.814669 -1.36255,0.154939 -2.36386,1.491175 -3.42282,2.26231 l -2.98603,-10.110569 -1.22668,-5.191919 M 162.2617,104.2183 c 0,3.92509 1.56003,11.81106 -2.89623,13.62249 -2.37518,0.96542 -5.902,0.3137 -8.42541,0.3137 H 132.77277 70.108792 48.781974 c -2.80913,0 -6.839586,0.75912 -9.478585,-0.3137 -4.456167,-1.81143 -2.89623,-9.6974 -2.89623,-13.62249 H 162.2617 m -70.288182,4.82384 c -2.172965,0.75036 -1.791979,3.69308 0.253033,4.31037 3.07237,0.92772 7.335359,0.15659 10.530699,0.15659 1.30147,0 3.00629,0.28364 4.20112,-0.36016 1.86017,-1.00232 1.47918,-3.68626 -0.51895,-4.17758 -2.95548,-0.72632 -6.702415,-0.10766 -9.737934,-0.10766 -1.467069,0 -3.320921,-0.30742 -4.727968,0.17844 m 21.052202,27.69393 H 85.643142 c 1.542379,-2.59377 2.956526,-4.93505 3.71666,-7.92449 0.36229,-1.4256 0.17614,-4.45849 1.030007,-5.57366 0.931003,-1.216 5.682668,-0.43803 7.101563,-0.43803 h 7.635528 c 0.822,0 2.31093,-0.28556 3.00076,0.28091 0.87019,0.71484 0.67956,3.54307 0.91916,4.63774 0.74828,3.42065 2.22904,6.07453 3.9789,9.01753 m -42.916666,4.73531 c 4.868313,-0.91706 10.583367,-0.0899 15.534088,-0.0899 h 31.858568 c 3.53684,0 7.57788,-0.56565 11.05809,0.0899 1.74353,0.32845 2.92441,2.39537 1.4963,3.92617 -1.02473,1.0985 -2.79144,0.90257 -4.12897,0.90257 H 115.65866 83.536788 c -4.037872,0 -10.162619,1.19606 -13.953262,-0.282 -2.396769,-0.93482 -1.823578,-4.10407 0.525528,-4.54674 z"
       id="path1681" />
  </g>
</svg>
