<?xml version="1.0" encoding="utf-8"?>
<!-- Generator: Adobe Illustrator 19.0.0, SVG Export Plug-In . SVG Version: 6.00 Build 0)  -->
<svg version="1.1" id="Vrstva_1" xmlns="http://www.w3.org/2000/svg" xmlns:xlink="http://www.w3.org/1999/xlink" x="0px" y="0px"
	 width="273.6px" height="82.1px" viewBox="0 0 273.6 82.1" style="enable-background:new 0 0 273.6 82.1;" xml:space="preserve">
<style type="text/css">
	.st0{fill:#878787;}
	.st1{fill:#309345;}
	.st2{fill:#BBBBBB;}
</style>
<rect x="29.7" y="29.4" class="st0" width="69.8" height="23.3"/>
<rect x="29.7" y="58.8" class="st1" width="23.2" height="23.4"/>
<rect y="29.4" class="st2" width="23.7" height="23.3"/>
<rect x="29.7" class="st2" width="23.2" height="23.3"/>
<polygon class="st0" points="99.5,82.1 76.2,82.1 76.2,0 99.5,0 "/>
<g id="XMLID_27_">
	<path id="XMLID_28_" class="st1" d="M112.4,39.7V16.4h3.3l7.5,11.8c1.7,2.7,3.1,5.2,4.2,7.6l0.1,0c-0.3-3.1-0.3-6-0.3-9.6v-9.8h2.8
		v23.4h-3.1l-7.4-11.9c-1.6-2.6-3.2-5.3-4.4-7.8l-0.1,0c0.2,2.9,0.2,5.8,0.2,9.6v10H112.4z"/>
	<path id="XMLID_30_" class="st1" d="M136.8,31.9c0.1,4.1,2.7,5.8,5.8,5.8c2.2,0,3.5-0.4,4.6-0.9l0.5,2.2c-1.1,0.5-2.9,1-5.6,1
		c-5.2,0-8.3-3.4-8.3-8.5c0-5.1,3-9.1,7.9-9.1c5.5,0,6.9,4.8,6.9,7.9c0,0.6-0.1,1.1-0.1,1.4H136.8z M145.7,29.7c0-1.9-0.8-5-4.2-5
		c-3.1,0-4.4,2.8-4.7,5H145.7z"/>
	<path id="XMLID_33_" class="st1" d="M152.5,27.5c0-1.7,0-3.2-0.1-4.5h2.7l0.1,2.7h0.1c0.9-1.6,2.5-3.1,5.3-3.1c2.3,0,4,1.4,4.8,3.4
		h0.1c0.5-0.9,1.2-1.7,1.9-2.2c1-0.8,2.1-1.2,3.7-1.2c2.2,0,5.5,1.5,5.5,7.3v9.9h-3v-9.5c0-3.2-1.2-5.2-3.6-5.2
		c-1.7,0-3.1,1.3-3.6,2.8c-0.1,0.4-0.2,1-0.2,1.5v10.4h-3V29.7c0-2.7-1.2-4.6-3.5-4.6c-1.9,0-3.3,1.5-3.8,3.1
		c-0.2,0.5-0.2,1-0.2,1.5v10.1h-3V27.5z"/>
	<path id="XMLID_35_" class="st1" d="M196.6,31.2c0,6.2-4.3,8.9-8.4,8.9c-4.5,0-8-3.3-8-8.6c0-5.6,3.7-8.9,8.3-8.9
		C193.3,22.6,196.6,26.1,196.6,31.2z M183.3,31.4c0,3.7,2.1,6.5,5.1,6.5c2.9,0,5.1-2.7,5.1-6.5c0-2.8-1.4-6.5-5-6.5
		C184.8,24.9,183.3,28.2,183.3,31.4z"/>
	<path id="XMLID_38_" class="st1" d="M212.4,39.1c-0.8,0.4-2.6,1-4.8,1c-5.1,0-8.4-3.4-8.4-8.6c0-5.2,3.5-8.9,9-8.9
		c1.8,0,3.4,0.5,4.2,0.9l-0.7,2.4c-0.7-0.4-1.9-0.8-3.5-0.8c-3.9,0-5.9,2.8-5.9,6.4c0,3.9,2.5,6.3,5.8,6.3c1.7,0,2.9-0.5,3.7-0.8
		L212.4,39.1z"/>
	<path id="XMLID_40_" class="st1" d="M216,27.5c0-1.7,0-3.2-0.1-4.5h2.7l0.2,2.8h0.1c0.8-1.6,2.8-3.2,5.6-3.2c2.3,0,5.9,1.4,5.9,7.1
		v10h-3.1v-9.7c0-2.7-1-5-3.9-5c-2,0-3.6,1.4-4.1,3.1c-0.1,0.4-0.2,0.9-0.2,1.4v10.1H216V27.5z"/>
	<path id="XMLID_42_" class="st1" d="M238.7,18.2c0,1-0.7,1.9-1.9,1.9c-1.1,0-1.8-0.8-1.8-1.9c0-1.1,0.8-1.9,1.9-1.9
		C237.9,16.3,238.7,17.2,238.7,18.2z M235.3,39.7V23h3.1v16.8H235.3z"/>
	<path id="XMLID_45_" class="st1" d="M255.4,39.1c-0.8,0.4-2.6,1-4.8,1c-5.1,0-8.4-3.4-8.4-8.6c0-5.2,3.5-8.9,9-8.9
		c1.8,0,3.4,0.5,4.2,0.9l-0.7,2.4c-0.7-0.4-1.9-0.8-3.5-0.8c-3.9,0-5.9,2.8-5.9,6.4c0,3.9,2.5,6.3,5.8,6.3c1.7,0,2.9-0.5,3.7-0.8
		L255.4,39.1z"/>
	<path id="XMLID_47_" class="st1" d="M260.4,31.9c0.1,4.1,2.7,5.8,5.8,5.8c2.2,0,3.5-0.4,4.6-0.9l0.5,2.2c-1.1,0.5-2.9,1-5.6,1
		c-5.2,0-8.3-3.4-8.3-8.5c0-5.1,3-9.1,7.9-9.1c5.5,0,6.9,4.8,6.9,7.9c0,0.6-0.1,1.1-0.1,1.4H260.4z M269.4,29.7c0-1.9-0.8-5-4.2-5
		c-3.1,0-4.4,2.8-4.7,5H269.4z"/>
	<path id="XMLID_50_" class="st1" d="M113.4,52.5l3.3,9.4c0.6,1.5,1,2.9,1.4,4.3h0.1c0.4-1.4,0.9-2.8,1.4-4.3l3.3-9.4h3.2l-6.6,16.8
		h-2.9l-6.4-16.8H113.4z"/>
	<path id="XMLID_52_" class="st1" d="M152.7,68.5c-1.1,0.6-3.3,1.1-6.2,1.1c-6.6,0-11.6-4.2-11.6-11.8c0-7.3,5-12.3,12.2-12.3
		c2.9,0,4.8,0.6,5.6,1l-0.7,2.5c-1.1-0.6-2.8-1-4.7-1c-5.5,0-9.1,3.5-9.1,9.6c0,5.7,3.3,9.4,9,9.4c1.8,0,3.7-0.4,4.9-1L152.7,68.5z"
		/>
	<path id="XMLID_54_" class="st1" d="M156.4,44.6h3.1v10.5h0.1c0.5-0.9,1.2-1.6,2.2-2.2c0.9-0.5,2-0.9,3.1-0.9
		c2.3,0,5.9,1.4,5.9,7.2v10h-3.1v-9.6c0-2.7-1-5-3.9-5c-2,0-3.5,1.4-4.1,3.1c-0.2,0.4-0.2,0.9-0.2,1.5v10.1h-3.1V44.6z"/>
	<path id="XMLID_56_" class="st1" d="M177.4,61.4c0.1,4.1,2.7,5.8,5.8,5.8c2.2,0,3.5-0.4,4.6-0.9l0.5,2.2c-1.1,0.5-2.9,1-5.6,1
		c-5.2,0-8.3-3.4-8.3-8.5c0-5.1,3-9.1,7.9-9.1c5.5,0,6.9,4.8,6.9,7.9c0,0.6-0.1,1.1-0.1,1.4H177.4z M186.3,59.2c0-1.9-0.8-5-4.2-5
		c-3.1,0-4.4,2.8-4.7,5H186.3z"/>
	<path id="XMLID_59_" class="st1" d="M192.9,69.3c0.1-1.1,0.1-2.8,0.1-4.3V44.6h3v10.5h0.1c1.1-1.9,3-3.1,5.7-3.1
		c4.2,0,7.1,3.5,7.1,8.6c0,6-3.8,9-7.5,9c-2.4,0-4.4-0.9-5.6-3.2h-0.1l-0.1,2.8H192.9z M196.1,62.5c0,0.4,0.1,0.8,0.1,1.1
		c0.6,2.1,2.4,3.6,4.6,3.6c3.2,0,5.1-2.6,5.1-6.5c0-3.4-1.7-6.2-5-6.2c-2.1,0-4,1.4-4.6,3.7c-0.1,0.3-0.2,0.8-0.2,1.2V62.5z"/>
	<path id="XMLID_62_" class="st1" d="M226.9,64.7c0,1.7,0,3.3,0.1,4.6h-2.7l-0.2-2.7h-0.1c-0.8,1.4-2.6,3.1-5.6,3.1
		c-2.6,0-5.8-1.5-5.8-7.4v-9.8h3.1v9.3c0,3.2,1,5.3,3.7,5.3c2,0,3.5-1.4,4-2.8c0.2-0.5,0.3-1,0.3-1.6V52.5h3.1V64.7z"/>
</g>
</svg>
